<?xml version="1.0" standalone="no"?>
<!DOCTYPE svg PUBLIC "-//W3C//DTD SVG 1.1//EN" "http://www.w3.org/Graphics/SVG/1.1/DTD/svg11.dtd" >
<!--
2013-9-30: Created.
-->
<svg>
<metadata>
Created by iconfont
</metadata>
<defs>

<font id="iconfont" horiz-adv-x="1024" >
  <font-face
    font-family="iconfont"
    font-weight="500"
    font-stretch="normal"
    units-per-em="1024"
    ascent="896"
    descent="-128"
  />
    <missing-glyph />
    
    <glyph glyph-name="rectangle390" unicode="&#58880;" d="M933.875 216.231l0 415.398c0 89.578-72.64 162.247-162.247 162.247l-519.257 0c-89.578 0-162.247-72.64-162.247-162.247l0-519.257c0-89.578 72.64-162.247 162.247-162.247l519.257 0c79.833 0 146.234 57.694 159.739 133.674-43.01 18.503-229.54 99.03-326.659 145.483-73.909-89.539-151.342-143.264-268.058-143.264-116.716 0-194.602 71.798-185.212 159.831 6.163 57.78 45.78 152.112 217.775 135.887 90.651-8.552 132.162-25.462 206.163-49.822 19.016 35.045 34.979 73.643 46.962 114.726l-327.761 0 0 32.452 162.143 0 0 58.413-197.819 0 0 35.697 197.819 0 0 84.151c0 0 1.864 13.205 16.339 13.205l81.13 0 0-97.356 210.937 0 0-35.697-210.938 0 0-58.413 171.995 0c-15.769-64.437-39.718-123.547-69.793-175.278 50.03-18.048 277.485-87.583 277.485-87.583 0 0 0 0 0 0zM323.779 141.593c-123.318 0-142.788 77.885-136.298 110.337s42.188 74.64 110.743 74.64c78.833 0 149.316-20.114 234.033-61.377-59.424-77.44-132.575-123.6-208.477-123.6z"  horiz-adv-x="1025" />

    
    <glyph glyph-name="icon" unicode="&#58882;" d="M511.979-107.056c-300.633 0-426.734 107.535-426.734 328.527 0 183.079 142.992 374.138 316.335 434.413l220.799 0c173.35-60.275 316.335-251.333 316.335-434.413-0.001-220.992-126.102-328.527-426.737-328.527zM630.242 256.086l0 0.073c19.951 0.105 36.089 16.314 36.089 36.281 0 19.987-16.137 36.177-36.089 36.303l0 0.086-73.195 0c0.143 0.816-0.097 1.542-0.025 2.359l85.783 87.691c13.993 15.764 6.873 28.799-7.269 43.092-14.231 14.365-37.489 17.378-48.989 4.859l-73.762-78.629-79.675 79.676c-10.082 10.073-29.696 6.791-43.81-7.324-14.126-14.134-17.397-33.764-7.324-43.837l81.486-81.467c-1.525-1.95-2.512-4.115-3.104-6.42l-66.225 0 0-0.068c-0.062 0-0.126 0-0.186 0-20.057 0-36.319-16.245-36.319-36.319 0-20.037 16.262-36.316 36.319-36.316 0.061 0 0.124 0.036 0.186 0.036l0-0.073 72.591 0 0-36.175-72.591 0 0-0.106c-0.062 0-0.126 0-0.186 0-20.057 0-36.319-16.245-36.319-36.317 0-20.039 16.262-36.319 36.319-36.319 0.061 0 0.124 0.036 0.186 0.036l0-0.036 72.591 0 0-36.566 0.753 0c-0.569-2.836-0.895-5.798-0.895-8.83 0-25.075 20.322-45.398 45.396-45.398 25.076 0 45.398 20.323 45.398 45.398 0 3.031-0.33 5.994-0.896 8.83l0.425 0 0 36.566 73.338 0.036c19.951 0.125 36.089 16.315 36.089 36.284 0 19.984-16.137 36.175-36.089 36.299l0 0.125-73.338 0 0 36.174 73.337 0zM684.487 800.89l-7.632-9.54c-0.169-0.177-0.286-0.39-0.454-0.567l-64.548-80.686-217.906 0-64.426 80.545c-0.479 0.462-0.789 1.028-1.232 1.525l-6.978 8.724 1.231 2.466c-0.593 2.235-1.383 4.416-1.383 6.828 0 11.562 7.271 21.331 17.45 25.305l0.861 1.721c0 0 89.262 17.857 163.43 18.159 77.62 0.319 163.431-18.159 163.431-18.159l0.88-1.738c10.115-4.009 17.324-13.762 17.324-25.287 0-2.377-0.781-4.487-1.347-6.667l1.3-2.627z"  horiz-adv-x="1024" />

    
    <glyph glyph-name="zhuanzhang" unicode="&#58883;" d="M954.014 373.305c-31.51-0.303-185.995 88.917-190.874 93.568-11.734 11.188-7.3 25.115 4.673 27.02s79.203 9.898 79.203 9.898c-41.318 110.437-133.518 198.636-254.527 227.223-193.138 45.643-392.87-83.827-437.013-281.424-0.38-1.685-3.047-21.83-19.045-21.191-10.83 0.432-46.309 14.539-59.136 20.556-14.644 6.868-18.601 5.094-14.16 27.201 50.235 251.201 307.497 420.497 554.419 362.572 204.919-48.063 347.27-225.878 362.91-428.477 2.619-27.151-11.203-36.797-26.451-36.944zM631.498 318.246c20.284 0 36.729-16.427 36.729-36.727 0-20.265-16.445-36.729-36.729-36.729l-73.456 0 0-45.909c0-25.359-20.551-45.911-45.911-45.911-25.358 0-45.91 20.551-45.91 45.911l0 45.909-73.456 0c-20.284 0-36.727 16.465-36.727 36.729 0 20.302 16.444 36.727 36.727 36.727l73.456 0 0 36.73-73.456 0c-20.284 0-36.727 16.461-36.727 36.726 0 20.3 16.444 36.729 36.727 36.729l73.456 0 0 2.512-81.508 81.491c-14.445 14.455-14.445 37.875 0 52.313s37.858 14.437 52.304 0l74.497-74.478 74.786 74.784c14.444 14.419 37.859 14.419 52.303 0 14.446-14.454 14.446-37.877 0-52.313l-80.558-80.559 0-3.749 73.456 0c20.284 0 36.729-16.429 36.729-36.729 0-20.267-16.445-36.726-36.729-36.726l-73.456 0 0-36.73 73.456 0zM263.027 266.418c16.112-10.302 12.229-30.994-5.477-32.836s-73.153-6.725-73.153-6.725c43.956-103.014 133.043-184.236 248.233-211.442 193.137-45.623 390.651 77.582 434.806 275.179 0.906 4.054 0.877 3.418 2.457 12.122s4.139 21.945 21.142 16.052 58.475-18.085 71.394-21.539 11.465-8.548 9.846-20.553c-0.493-3.651-1.238-6.994-2.017-10.509-57.81-256.921-309.451-417.196-562.049-357.924-204.677 48.01-346.947 225.429-362.865 427.724-2.159 34.762 22.4 41.857 47.505 28.577 19.75-10.447 154.064-87.822 170.176-98.124z"  horiz-adv-x="1024" />

    
    <glyph glyph-name="taobao" unicode="&#58894;" d="M129.307 535.271l-53.662-82.848 99.451-61.857c0 0 66.156-33.941 34.733-97.375-29.822-60.178-174.474-191.803-174.474-191.803l129.817-80.938c89.543 194.575 83.882 168.57 106.487 238.569 23.117 71.425 28.014 125.873-11.169 165.162-50.56 50.736-56.031 55.392-131.182 111.091zM462.95 640.229c20.519 35.675 30.433 58.906 30.433 58.906l-119.742 33.587c0 0-48.294-157.554-134.423-231.062 0 0 83.302-48.066 82.34-46.667 23.98 23.868 45.315 48.143 64.08 71.73 19.033 8.321 37.519 16.182 55.481 23.509-22.085-39.87-57.949-99.588-93.734-137.247l50.442-44.123c0 0 34.348 32.978 71.922 72.851l42.837 0 0-73.484-167.073 0 0-58.804 167.072 0 0-140.988c-2.103 0.103-4.215 0.103-6.286 0.23-18.463 0.94-47.178 4.019-58.383 21.65-13.679 21.58-3.676 61.245-2.98 85.47l-115.07 0-4.251-2.112c0 0-42.022-189.054 121.867-184.829 153.457-4.147 241.418 42.673 283.607 75.139l16.788-62.569 94.659 39.26-63.932 156.921-76.945-23.921 14.43-53.788c-19.833-14.655-42.633-25.699-66.961-33.814l0 123.353 162.926 0 0 58.804-162.927 0 0 73.484 163.585 0 0 58.829-290.679 0c20.914 25.418 37.406 48.775 41.756 63.687l-50.546 13.714c217.207 77.759 338.308 64.4 337.151-63.051l0-336.099c0 0 13.006-115.568-119.358-107.147l-71.402 15.37-16.794-67.889c0 0 308.77-88.214 333.999 149.21 25.229 237.371-6.295 388.614-6.295 388.614s-27.899 219.102-507.594 83.278zM200.289 566.213c47.173 0 85.441 37.962 85.441 84.806 0 46.791-38.269 84.807-85.441 84.807-47.177 0-85.434-38.016-85.434-84.807 0-46.845 38.256-84.806 85.434-84.806z"  horiz-adv-x="1024" />

    
    <glyph glyph-name="qianbaopengyou" unicode="&#58907;" d="M332.765 337.381c-18.418-1.847-45.986-6.729-72.076-27.541 0.711 0.369 0.231-0.075 0.231-0.075-55.653-47.021-20.572-135.853 91.381-135.853 64.931 0 129.92 42.587 180.813 109.571-72.51 35.708-133.939 60.513-200.35 53.898zM524.205 814.62c-245.088 6.396-448.95-186.903-455.346-431.771-6.414-244.83 187.081-448.518 432.159-454.912 98.554-2.588 190.139 27.541 265.218 79.92l156.525-42.695-41.493 159.732c45.2 67.393 72.823 147.721 75.098 234.814 6.412 244.867-187.081 448.517-432.161 454.912zM818.563 151.585c-83.417 35.894-174.881 75.892-219.75 97.741-63.221-77.483-148.475-120.771-232.953-120.771-82.869 0-143.829 49.313-150.714 100.883 0-0.405-0.065-0.595-0.065-0.999 0 0-18.547 53.972 26.487 108.313 14.925 18.041 39.934 35.489 79.007 45.174 61.052 15.158 158.291-9.389 249.424-39.701 16.366 30.423 37.668 61.991 47.972 97.665l-306.499 0 0 38.113 153.246 0 0 38.113-172.402 0 0 38.114 172.403 0 0 76.225 95.779 0 0-76.225 172.403 0 0-38.114-172.403 0 0-38.113c0 0 153.377-1.296 153.246 0-6.894-55.711-49.451-107.61-76.623-152.451 43.029-15.674 88.818-36.323 115.015-45.783 68.573-24.765 98.203-34.397 112.027-37.279-11.315-32.496-26.729-62.994-45.6-90.903z"  horiz-adv-x="1024" />

    
    <glyph glyph-name="huiyuantequan" unicode="&#58916;" d="M699.639053 456.200392l0-53.636594c0 0 26.818809 0 53.646827 0 26.829042 0 26.829042 18.86158 26.829042 27.033703 0 7.976672 0 26.601868-26.829042 26.601868C726.457862 456.200392 699.639053 456.200392 699.639053 456.200392zM762.029008 348.376665l-35.571147 0 0-106.760512-80.474846 0L645.983016 509.856429l134.130883 0c28.526707 0 40.491203-2.416026 54.667064-16.483416 14.223956-14.027481 25.806759-38.0762 25.806759-63.990407 0-26.66122-12.211113-43.478234-27.732621-58.489112C817.432853 355.882616 793.728988 348.376665 762.029008 348.376665zM592.337211 509.856429l0-268.240277-80.473823 0L511.863389 509.856429 592.337211 509.856429zM377.743762 241.616152l-80.474846 0L189.967074 509.856429l80.474846 0 66.083068-185.4282 68.037583 185.4282 80.474846 0L377.743762 241.616152zM158.561807 696.975131c-45.482891 0-93.77578-26.170033-93.77578-79.82607l0-458.59058c0-43.026956 36.513612-85.739756 81.996502-85.739756l730.162742 0c45.481867 0 81.996502 42.712801 81.996502 85.739756L958.941773 617.149061c0 53.656037-60.071144 79.82607-105.554034 79.82607L158.561807 696.975131z"  horiz-adv-x="1024" />

    
    <glyph glyph-name="zhaohuo2normal" unicode="&#58912;" d="M953.275625 626.4791250000001L497.216375 824.60175c-3.7485 1.629-8.011125 1.59975-11.736-0.07425L70.54325 637.4546250000001c-5.199749999999998-2.343375-8.54325-7.520625-8.54325-13.222125l0-465.24262500000003c0-5.58225 3.2085-10.6785 8.25075-13.088249999999999l430.36425-205.59825c1.98-0.9461250000000001 4.111875-1.422 6.256125-1.422 2.174625 0 4.352625000000001 0.495 6.359624999999999 1.474875l440.625375 214.94475c4.982625 2.4333750000000003 8.141625 7.4879999999999995 8.141625 13.033125L961.99775 613.1793749999999C962 618.955125 958.571 624.179625 953.275625 626.4791250000001zM476.31725 16.879875000000084L112.10862499999996 190.35375 112.10862499999996 542.2548750000001l364.20862500000004-154.7505L476.31725 16.879875000000084zM511.463375 448.14074999999997L136.05987500000003 602.81925c-1.15425 0.49837499999999996-2.329875 0.802125-3.5133750000000004 0.9629999999999999L492.452 759.76575l385.28775-160.90875L511.463375 448.14074999999997zM912.010625 199.25362499999994L547.404875 21.688125000000014l0 365.99625 364.60575 154.87875L912.010625 199.25362499999994zM172.83162500000003 377.0306249999999l187.85249999999996-87.1515c3.024-2.5278750000000003 6.4125-4.33125 9.957375-5.40225 10.443375-3.1691249999999997 22.23-0.057375 29.696624999999997 8.821124999999999 10.019250000000001 11.8485 8.4915 29.595375000000004-3.3705000000000003 39.655125L209.09824999999995 420.081c-11.876625 10.008000000000001-29.625750000000004 8.496-39.63825-3.405375C159.44074999999998 404.81025 160.964 387.07125 172.83162500000003 377.0306249999999z"  horiz-adv-x="1025" />

    
    <glyph glyph-name="zv1" unicode="&#58887;" d="M871.20657 13.844565 159.82559 13.844565c-13.71435 0-27.028587 2.696412-39.579437 8.001231-12.107759 5.124717-22.975271 12.44852-32.30373 21.775956-9.327436 9.328459-16.657378 20.201088-21.775956 32.30987-5.313006 12.545734-8.001231 25.865087-8.001231 39.579437L58.165236 623.637846c0 13.71435 2.688225 27.028587 8.001231 39.579437 5.118578 12.107759 12.449543 22.975271 21.775956 32.30373 9.329483 9.327436 20.195971 16.657378 32.30373 21.775956 12.550851 5.313006 25.865087 8.002254 39.579437 8.002254l711.38098 0c13.71435 0 27.028587-2.689249 39.579437-8.002254 12.108782-5.118578 22.975271-12.44852 32.30373-21.775956 9.327436-9.328459 16.657378-20.195971 21.775956-32.30373 5.311982-12.550851 8.001231-25.865087 8.001231-39.579437l0-508.126786c0-13.713326-2.689249-27.033703-8.001231-39.579437-5.118578-12.108782-12.44852-22.981411-21.775956-32.30987-9.328459-9.327436-20.194948-16.651238-32.30373-21.775956C898.235157 16.539954 884.92092 13.844565 871.20657 13.844565M159.82559 674.412252c-27.997658 0-50.774407-22.776749-50.774407-50.774407l0-508.126786c0-28.002774 22.776749-50.7785 50.774407-50.7785l711.38098 0c27.996634 0 50.773384 22.775726 50.773384 50.7785L921.979954 623.637846c0 27.997658-22.776749 50.774407-50.773384 50.774407L159.82559 674.412252zM185.234283 547.41893l203.2501 0 0-50.816363-203.2501 0 0 50.816363ZM667.212526 210.750167c-21.097504 0-41.577954 4.137227-60.869323 12.297071-18.62008 7.880481-35.344996 19.147082-49.694819 33.503045-14.3488 14.349823-25.622564 31.067576-33.496905 49.688679-8.15882 19.293415-12.296047 39.772842-12.296047 60.868299 0 21.099551 4.137227 41.580001 12.296047 60.873416 7.874341 18.619056 19.148106 35.344996 33.496905 49.692772 14.349823 14.350846 31.074739 25.624611 49.694819 33.497928 19.292392 8.159844 39.771819 12.297071 60.869323 12.297071 21.096481 0 41.576931-4.137227 60.870346-12.297071 18.62008-7.874341 35.338856-19.147082 49.688679-33.497928 14.355963-14.347776 25.622564-31.073716 33.503045-49.692772 8.159844-19.293415 12.297071-39.773865 12.297071-60.873416 0-21.095457-4.137227-41.575908-12.297071-60.868299-7.880481-18.62008-19.147082-35.337833-33.503045-49.688679-14.3488-14.355963-31.067576-25.622564-49.688679-33.503045C708.789457 214.887394 688.309006 210.750167 667.212526 210.750167M667.212526 472.586594c-28.172643 0-54.660924-10.975982-74.583672-30.892591-19.917632-19.921725-30.894637-46.411029-30.894637-74.586742 0-28.17162 10.978029-54.653761 30.894637-74.576509 19.922748-19.922748 46.411029-30.891568 74.583672-30.891568s54.661947 10.969842 74.578556 30.891568c19.922748 19.922748 30.892591 46.404889 30.892591 74.576509 0 28.175713-10.970866 54.663994-30.892591 74.586742C721.868333 461.610612 695.385169 472.586594 667.212526 472.586594M842.28896 13.844565 495.790318 13.844565l-3.1262 21.843494c-1.193175 8.377808-1.805112 16.931624-1.805112 25.423019 0 24.041556 4.718465 47.381124 14.017248 69.362764 8.971325 21.218254 21.818935 40.274262 38.173414 56.629765s35.406394 29.196972 56.630788 38.174438c21.98164 9.29776 45.315068 14.010085 69.362764 14.010085 24.041556 0 47.374984-4.712325 69.362764-14.010085 21.218254-8.976442 40.269146-21.818935 56.623625-38.174438s29.203112-35.410488 38.180578-56.629765c9.29776-21.98164 14.010085-45.321208 14.010085-69.362764 0-8.491395-0.605797-17.045211-1.805112-25.423019L842.28896 13.844565zM541.796118 64.732559l254.487042 0c-0.908696 32.642444-14.046924 63.202461-37.235043 86.383416-24.041556 24.047696-56.005548 37.284161-90.00592 37.284161-34.005488 0-65.971527-13.236466-90.01206-37.284161C555.842019 127.93502 542.703791 97.375004 541.796118 64.732559M185.234283 445.795415l254.064416 0 0-50.815339-254.064416 0 0 50.815339ZM185.234283 344.163713l152.434761 0 0-50.808176-152.434761 0 0 50.808176Z"  horiz-adv-x="1024" />

    
    <glyph glyph-name="zhifu" unicode="&#59204;" d="M739.0247094044445 5.579355022222217H136.62387996444437c-63.10470428444445 0-114.30808348444441 51.34176597333333-114.30808348444441 114.30808234666667V482.7394878577778C22.31579647999996 545.8441921422223 73.65756245333336 597.0475713422222 136.62387996444437 597.0475713422222h366.86528853333334c14.530688568888888 0 26.432014791111104-11.76293831111111 26.432013653333335-26.432014791111104 0-14.530688568888888-11.76293831111111-26.432014791111104-26.432013653333335-26.432013653333335H136.62387996444437c-33.90494037333333 0-61.58244181333333-27.67750144-61.58244181333333-61.58244181333333v-362.7136637155556c0-33.90494037333333 27.67750144-61.58244181333333 61.58244181333333-61.58244181333333h602.4008294399999c33.90494037333333 0 61.58244181333333 27.67750144 61.58244181333333 61.58244181333333V268.1004600888889c0 14.530688568888888 11.76293831111111 26.432014791111104 26.432014791111104 26.432014791111104 14.530688568888888 0 26.432014791111104-11.76293831111111 26.432014791111104-26.432014791111104v-148.21302272c0-62.966316373333335-51.34176597333333-114.30808348444441-114.44647139555556-114.30808234666667z m0 0M498.36883057777777 429.0451342222222H48.609423359999994v-101.71481998222222h505.6679606044445L498.36883057777777 429.0451342222222z m0 0M732.7972716088889 222.70935722666673c-71.82311765333334 0-139.35622257777777 27.954277262222224-190.14443804444446 78.74249272888889s-78.74249272888889 118.32132039111112-78.74249272888889 190.14443918222224 27.954277262222224 139.35622257777777 78.74249272888889 190.14443804444446 118.32132039111112 78.74249272888889 190.14443804444446 78.74249272888889c71.82311765333334 0 139.35622257777777-27.954277262222224 190.14443804444446-78.74249272888889s78.74249272888889-118.32132039111112 78.74249386666665-190.14443804444446c0-71.82311765333334-27.954277262222224-139.35622257777777-78.74249386666665-190.14443918222224s-118.32132039111112-78.74249272888889-190.14443804444446-78.74249272888889z m0 485.0482221511111c-119.1516455822222 0-216.16129023999997-97.00964465777777-216.16129023999997-216.16129023999997s97.00964465777777-216.16129023999997 216.16129023999997-216.16129023999997 216.16129023999997 97.00964465777777 216.16129023999997 216.16129023999997S851.9489171911111 707.7575793777778 732.7972716088889 707.7575793777778z m0 0M732.7972716088889 488.41337628444444c-5.812275199999999 0-11.209387804444445 2.3525876622222217-15.084237937777779 6.64260039111111l-75.97474360888889 82.89411868444445c-7.611313493333334 8.303250773333334-7.057762986666666 21.31167687111111 1.2454877866666667 29.061377137777775 8.303250773333334 7.611313493333334 21.31167687111111 7.057762986666666 29.061377137777775-1.2454877866666667l60.890504533333335-66.42600504888888 60.890504533333335 66.42600504888888c7.611313493333334 8.303250773333334 20.619738453333337 8.856800142222221 29.061376 1.2454877866666667 8.303250773333334-7.611313493333334 8.856800142222221-20.619738453333337 1.2454877866666667-29.061377137777775l-75.97474247111111-82.89411868444445c-4.151624817777778-4.151624817777778-9.54873856-6.64260039111111-15.361013759999999-6.64260039111111z m0 0M815.6913902933334 488.41337628444444H649.9031529244444c-11.347775715555553 0-20.48135168 9.133575964444445-20.481350542222224 20.48135168 0 11.347775715555553 9.133575964444445 20.48135168 20.481350542222224 20.481350542222224h165.7882373688889c11.347775715555553 0 20.48135168-9.133575964444445 20.48135168-20.481350542222224 0-11.209387804444445-9.133575964444445-20.48135168-20.48135168-20.48135168z m0 0M822.6107653688889 413.6841204622222H642.983777848889c-11.347775715555553 0-20.48135168 9.133575964444445-20.48135168 20.48135168 0 11.347775715555553 9.133575964444445 20.48135168 20.48135168 20.48135168h179.62698752c11.347775715555553 0 20.48135168-9.133575964444445 20.48135168-20.48135168 0-11.347775715555553-9.133575964444445-20.48135168-20.48135168-20.48135168z m0 0M732.7972716088889 347.95005383111106c-11.347775715555553 0-20.48135168 9.133575964444445-20.48135168 20.48135168V509.0331147377777c0 11.347775715555553 9.133575964444445 20.48135168 20.48135168 20.48135168 11.347775715555553 0 20.48135168-9.133575964444445 20.48135168-20.48135168v-140.46332245333332c0-11.347775715555553-9.133575964444445-20.619738453333337-20.48135168-20.619738453333337z m0 0"  horiz-adv-x="1024" />

    
    <glyph glyph-name="Ankerwebicon-" unicode="&#59130;" d="M922.004706 404.621035c0-8.749058-5.433818-16.594515-13.65781-19.772382l-111.61307-43.021799a21.668114 21.668114 0 0 0-19.891438 2.24374c-5.873408 3.959361-9.365705 10.51047-9.365705 20.471452v119.971381c0.140425 0.253375 0.335798 0.369378 0.479275 0.610542 1.709516 11.02943 11.46902 19.097734 22.754878 18.133078 10.092249-0.860863 17.543907-8.703267 18.954257-18.307083 0.2259-0.363272 0.509802-0.558645 0.726544-0.946339v-88.424708l68.667589 23.511949V510.681231c0.097687 0.250322 0.268638 0.445695 0.37243 0.692964-0.03358 0.87918-0.37243 1.675936-0.296113 2.573432a21.411686 21.411686 0 0 0 23.154782 19.50985c10.901216-0.931076 18.835202-9.967088 19.219843-20.627141l0.491486-0.705175v-107.504126zM1087.522474 749.769234L558.140361 895.203244c-0.18011 0.042738-0.363272 0.073265-0.543382 0.119055-0.238111 0.042738-0.436537 0.119056-0.662437 0.164846a15.660386 15.660386 0 0 1-2.28953 0.348009 17.968233 17.968233 0 0 1-1.190556 0.091581c-0.256427 0.030527-0.528118 0.030527-0.769282 0.042738-0.497591 0-1.022657 0-1.520248-0.027474l-0.540329-0.045791c-0.528118-0.045791-1.03792-0.106845-1.566039-0.195373-0.18011-0.015264-0.344956-0.061054-0.525066-0.091581a26.848557 26.848557 0 0 1-1.868256-0.40601L19.722236 750.086716l-0.119056-0.045791c-0.106845-0.015264-0.210637-0.061054-0.317482-0.091581l-0.708228-0.2259a25.642738 25.642738 0 0 1-0.781492-0.271691c-0.195373-0.061054-0.329692-0.134319-0.512855-0.210637-0.167899-0.061054-0.329692-0.137372-0.497591-0.195373-0.271691-0.119056-0.528118-0.256427-0.79981-0.375483-0.241164-0.103792-0.436537-0.2259-0.662437-0.329692a3.907465 3.907465 0 0 1-0.256427-0.137372c-0.271691-0.149583-0.540329-0.314429-0.81202-0.467064-0.241164-0.149583-0.467064-0.283902-0.708228-0.436537a11.417124 11.417124 0 0 1-0.949392-0.677701c-0.210637-0.149583-0.390746-0.302218-0.616647-0.451801-0.042738-0.042738-0.119056-0.091581-0.164846-0.137372-0.119056-0.103792-0.241164-0.2259-0.348009-0.314429-0.283902-0.241164-0.570856-0.482328-0.85781-0.738755-0.091581-0.073265-0.164846-0.164846-0.256428-0.256427-0.167899-0.149583-0.317482-0.317482-0.467064-0.482328-0.195373-0.2259-0.40601-0.421274-0.616647-0.647174l-0.302218-0.344955c-0.119056-0.149583-0.256427-0.317482-0.378535-0.497592a7.537133 7.537133 0 0 1-0.512855-0.662437 3.773146 3.773146 0 0 1-0.314429-0.451801c-0.106845-0.134319-0.213689-0.283902-0.317482-0.421273-0.149583-0.256427-0.317482-0.512855-0.467064-0.781493a4.023468 4.023468 0 0 1-0.314429-0.558646c-0.030527-0.030527-0.045791-0.061054-0.061054-0.091581-0.091581-0.164846-0.183162-0.314429-0.256427-0.494538-0.119056-0.241164-0.256427-0.482328-0.348009-0.723492-0.073265-0.119056-0.134319-0.241164-0.210636-0.360219-0.042738-0.103792-0.073265-0.2259-0.134319-0.329693-0.076318-0.195373-0.149583-0.390746-0.225901-0.573909-0.119056-0.302218-0.2259-0.570856-0.329692-0.873074-0.045791-0.149583-0.091581-0.317482-0.137372-0.482327-0.030527-0.106845-0.091581-0.195373-0.119056-0.317482-0.030527-0.103792-0.042738-0.195373-0.061054-0.283902-0.073265-0.241164-0.134319-0.482328-0.2259-0.723491-0.045791-0.238111-0.106845-0.494539-0.149583-0.735703-0.030527-0.18011-0.091581-0.348009-0.119055-0.528118-0.030527-0.183162-0.061054-0.378536-0.076318-0.573909a159.3513 159.3513 0 0 0-0.137372-0.918864c0-0.042738-0.015264-0.103792-0.015263-0.149583-0.030527-0.286954-0.045791-0.558645-0.061054-0.842547-0.015264-0.317482-0.030527-0.634963-0.030527-0.949392 0-0.091581-0.015264-0.18011-0.015264-0.271691V71.988934c0-9.200859 6.007727-17.363797 14.891104-20.193656l562.68104-178.754305 0.027474-0.015263c0.271691-0.091581 0.512855-0.149583 0.769283-0.210637 0.360219-0.119056 0.769282-0.210637 1.114238-0.302218 0.271691-0.061054 0.528118-0.103792 0.799809-0.149583 0.40601-0.073265 0.81202-0.149583 1.233293-0.195373 0.241164-0.030527 0.451801-0.061054 0.677701-0.073265 0.708228-0.030527 1.355402-0.076318 2.002576-0.076318 0.677701 0 1.355402 0.045791 2.033103 0.106845 0.283902 0.030527 0.558645 0.061054 0.827283 0.106845 0.375483 0.061054 0.781493 0.103792 1.156976 0.180109 0.317482 0.061054 0.650227 0.149583 0.979919 0.225901 0.314429 0.076318 0.616647 0.137372 0.918865 0.241164 0.344956 0.091581 0.705175 0.210637 1.03792 0.317481 0.152635 0.042738 0.302218 0.073265 0.436537 0.149583l493.592178 178.754305c8.434629 3.05576 14.079084 11.008061 14.079084 19.906701l0.030527 657.33327c0.009158 9.527498-6.419843 17.882757-15.715335 20.428714zM566.694046-77.660863L46.946276 87.466158V701.313618L566.694046 550.6259v-628.286763z m493.576914 164.479847l-450.643645-163.216027V566.496923c0 9.411495-6.279418 17.7057-15.419222 20.358503L103.686939 729.08104l126.742284 34.755068 537.050513-140.003244v-71.405867c0-11.881135 9.216122-19.009206 19.58922-19.897543 11.780396-1.007393 23.325733 8.871166 23.325734 21.781064V640.097687c0.018316 6.618269-6.502266 15.019318-15.871023 17.519484L311.097003 786.285714l58.199857 16.020606 509.762366-136.892535V581.299499c0.061054-0.134319-0.140425-0.265585-0.079371-0.399904-0.305271-11.25533 8.306415-20.975149 19.668591-21.94591a21.408633 21.408633 0 0 1 23.154782 19.509849c0.024422 0.274744 0.109897 1.117291 0.201478 1.254663v101.929883c0 9.561078-6.502266 17.96518-15.840496 20.462294L450.144749 824.57887l102.259576 28.158168 507.897162-139.51481-0.030527-626.403244zM902.293378 533.454424a21.411686 21.411686 0 0 1-23.154782-19.50985c-0.076318-0.897496 0.021369-3.016074-0.07937-3.263343v-91.590365l-68.667589-23.511949s0.076318 75.960506 0 88.424708-9.588552 18.392559-19.680801 19.253422c-11.285857 0.964655-23.234152-7.073122-23.234153-18.74362v-119.971381c0-9.964035 3.492297-16.512092 9.365705-20.471452a21.658955 21.658955 0 0 1 19.891438-2.24374l111.61307 43.021799c8.223992 3.174815 13.657811 11.020272 13.65781 19.772382V512.122108c0 14.069926-8.810112 20.40124-19.711328 21.332316z"  horiz-adv-x="1330" />

    
    <glyph glyph-name="cloud-safety" unicode="&#59135;" d="M511.79178666666667-76.10254222222216c-68.36451555555556 0-166.41251555555556 51.78595555555556-249.82869333333332 131.94012444444445-92.25784888888889 88.67953777777778-145.2020622222222 189.83253333333332-145.2020622222222 277.56544v396.31872l27.65596444444444 0.4482844444444444c0.9727999999999998 0 93.7312711111111 1.8944 189.6743822222222 40.62890666666667 96.86357333333333 39.15548444444445 160.5688888888889 84.83840000000001 161.20149333333336 85.28554666666666l16.472746666666666 11.919360000000001 16.683235555555555-12.026311111111111c0.7122488888888888-0.5256533333333333 63.02492444444445-45.54865777777778 161.04561777777778-85.17859555555556 96.3618133333333-38.89152 189.1726222222222-40.6016 190.12152888888886-40.6016l27.129173333333334-0.4482844444444444 0.18545777777777778-396.3471644444444c0-87.70559999999999-52.94535111111111-188.88362666666666-145.25553777777776-277.5369955555555-83.44575999999999-80.18033777777778-181.5187911111111-131.9674311111111-249.88330666666664-131.9674311111111zM172.88874666666663 333.4007466666667c0-164.96412444444442 240.56718222222224-353.79655111111106 338.90304-353.79655111111106 98.33699555555556 0 338.93034666666665 188.85745777777777 338.93034666666665 353.79655111111106v342.6144711111111l-11.737315555555558 1.2629333333333335c-41.54936888888889 4.4737422222222225-104.88832 15.39413333333333-170.59612444444443 41.918008888888885-67.04810666666667 27.13031111111111-118.30840888888888 56.39281777777777-149.54382222222225 76.15488l-7.053084444444444 4.472604444444444-7.053084444444444-4.472604444444444c-25.36561777777778-16.105244444444445-78.52145777777778-47.41802666666666-149.46531555555558-76.15374222222222-65.75900444444444-26.52501333333333-129.09795555555556-37.41923555555555-170.62229333333335-41.91914666666667l-11.736177777777778-1.2629333333333335v-342.61219555555556l-0.02616888888888889-0.002275555555555556zM335.2211911111111 328.0338488888889l36.20750222222222 42.36515555555555 111.10058666666667-94.04871111111109 210.93603555555555 241.75160888888888 42.39132444444444-36.57614222222222-247.27438222222221-283.45912888888887-153.36106666666666 129.9672177777778zM511.79178666666667-62.91797333333329c-132.75477333333333 0-381.84732444444444 209.96209777777779-381.84732444444444 396.3471644444444v383.34577777777776l14.70919111111111 0.23779555555555557c0.6576355555555555 0 95.88963555555556 1.8158933333333334 194.38478222222224 41.57667555555555 98.75797333333333 39.918933333333335 163.3598577777778 86.39032888888889 163.99018666666666 86.83747555555556l8.763164444444444 6.341973333333333 8.999822222222221-6.472817777777777c0.18545777777777778-0.13198222222222222 63.81226666666666-46.285937777777775 163.80700444444443-86.70663111111111 98.60096-39.78581333333334 193.98997333333332-41.57667555555555 194.91157333333334-41.57667555555555l14.102755555555554-0.2366577777777778 0.18545777777777778-383.37536c-0.028444444444444446-186.38392888888887-249.22453333333334-396.31872-382.0066133333333-396.31872zM497.6867555555556 806.4295822222223c-24.973084444444446-15.868586666666664-77.31313777777777-46.68188444444445-147.33425777777774-75.04896000000001-64.36522666666666-25.945884444444445-126.41393777777778-36.63075555555555-167.1213511111111-41.023715555555555l-23.497386666666667-2.525866666666667v-354.42915555555555c0-175.01639111111112 247.1173688888889-366.9538133333333 352.0591644444445-366.9538133333333 104.94293333333333 0 352.0864711111111 191.9374222222222 352.0864711111111 366.9538133333333v354.42915555555555l-23.49966222222222 2.524728888888889c-40.73472 4.394097777777778-102.7834311111111 15.078968888888888-167.09632 41.051022222222215-66.07644444444445 26.735502222222223-116.65180444444444 55.55086222222222-147.44007111111114 75.04896000000001l-14.103893333333332 8.921315555555557-14.052693333333334-8.947484444444445zM353.82727111111114 329.5334399999999l19.103288888888883 22.39374222222222 110.99363555555556-93.97020444444443 210.85752888888885 241.67082666666664 22.47224888888889-19.392284444444446-230.0666311111111-263.7220977777778-133.3600711111111 113.02001777777777z"  horiz-adv-x="1024" />

    
    <glyph glyph-name="weixinzhifu" unicode="&#58881;" d="M387.120762 269.263238a36.08381 36.08381 0 0 0-31.744 19.065905l-3.169524 4.778667L250.63619 515.803429c-1.609143 3.218286-1.609143 4.778667-1.609142 7.94819 0 9.557333 7.94819 19.114667 19.017142 19.114667 4.778667 0 7.94819-1.609143 11.117715-3.169524l118.979047-85.918476a48.761905 48.761905 0 0 1 30.134858-9.557334c6.339048 0 12.678095 1.609143 19.017142 3.218286l561.639619 251.318857C907.459048 818.078476 742.448762 896 555.25181 896 249.07581 896 0 687.640381 0 431.494095c0-139.946667 74.605714-265.654857 191.975619-349.96419 9.508571-6.339048 15.847619-17.456762 15.847619-30.232381 0-4.729905-1.560381-7.899429-1.560381-11.117714-9.557333-34.962286-23.79581-90.697143-25.404952-93.817905a46.518857 46.518857 0 0 1-3.169524-14.336c0-9.557333 7.94819-19.065905 19.017143-19.065905a22.918095 22.918095 0 0 1 11.117714 3.169524l122.148572 69.973333c9.557333 4.778667 19.017143 7.94819 30.134857 7.948191a46.811429 46.811429 0 0 0 15.896381-3.169524c57.10019-15.896381 117.369905-25.453714 180.857904-25.453714 306.224762 0 555.25181 208.408381 555.25181 464.505904 0 77.921524-22.186667 151.113143-63.439238 214.747429L407.747048 277.211429l-3.218286-3.169524a31.890286 31.890286 0 0 0-17.408-4.778667z"  horiz-adv-x="1121" />

    
    <glyph glyph-name="vector" unicode="&#58968;" d="M992 224h-32.288v1.6c0 161.92-86.528 303.808-215.648 382.4h160.832c11.072-19.04 31.52-32 55.136-32a64 64 0 0 1 0 128c-23.616 0-44.032-12.96-55.136-32h-296.864V704a32 32 0 0 1-32 32h-128a32 32 0 0 1-32-32v-32H119.168c-11.072 19.04-31.488 32-55.136 32a64 64 0 0 1 0-128c23.648 0 44.032 12.96 55.136 32h160.8C150.848 529.408 64.32 387.552 64.32 225.6V224H32.064a32 32 0 0 1-32-32v-128a32 32 0 0 1 32-32h128a32 32 0 0 1 32 32v128a32 32 0 0 1-32 32H128.32v1.6c0 178.432 122.464 328.672 287.712 371.392V576a32 32 0 0 1 32-32h128a32 32 0 0 1 32 32v20.992c165.28-42.72 287.744-192.96 287.744-371.392V224h-31.712a32 32 0 0 1-32-32v-128a32 32 0 0 1 32-32h128a32 32 0 0 1 32 32v128a32 32 0 0 1-32 32zM128 96H64v64h64v-64zM544 608h-64V672h64v-64z m416-512h-64v64h64v-64z"  horiz-adv-x="1024" />

    
    <glyph glyph-name="volume-" unicode="&#58969;" d="M574.496 830.112a32.064 32.064 0 0 1-32.928-1.696L220.48 576.32l-106.624-0.064c-54.528 0-98.88-38.656-98.88-86.4l1.696-211.136c0-47.552 44.352-86.24 98.88-86.24l106.592-0.064 319.392-252.736a32.064 32.064 0 0 1 49.92 26.528V801.888c0 11.808-6.528 22.688-16.96 28.256z m-47.04-803.744l-277.6 224.544a32.096 32.096 0 0 1-17.888 5.472l-116.384 0.064c-20.544 0-34.88 11.712-34.88 22.464l-1.728 211.136c0 10.496 14.336 22.176 34.912 22.176l116.416 0.064a31.744 31.744 0 0 1 17.856 5.472l279.328 224v-715.36z m321.024 352.128c0 84.992-58.432 156.448-138.912 169.888a32 32 0 0 1-10.528-63.136c50.336-8.384 85.472-52.32 85.472-106.752 0-51.84-36.384-96.672-86.496-106.688a32 32 0 1 1 12.544-62.752c79.936 15.936 137.984 87.232 137.984 169.472z m-42.464 293.6a32 32 0 0 1-22.368-60c96.544-36.032 161.376-129.888 161.376-233.632 0-103.776-64.832-197.856-161.312-234.016a32.032 32.032 0 0 1 11.2-61.952c3.744 0 7.52 0.64 11.232 2.048 121.344 45.504 202.88 163.616 202.88 293.952s-81.6 248.288-203.008 293.6z"  horiz-adv-x="1024" />

    
    <glyph glyph-name="volume-off" unicode="&#58970;" d="M575.52 830.112a32.064 32.064 0 0 1-32.928-1.696L221.504 576.32l-106.624-0.064C60.352 576.256 16 537.6 16 489.856l1.696-211.136c0-47.552 44.352-86.24 98.88-86.24l106.592-0.064 319.392-252.736a32.064 32.064 0 0 1 49.92 26.528V801.888c0 11.808-6.528 22.688-16.96 28.256z m-47.04-803.744L250.88 250.912a32.096 32.096 0 0 1-17.888 5.472l-116.384 0.064c-20.544 0-34.88 11.712-34.88 22.464L80 490.048c0 10.496 14.336 22.176 34.912 22.176l116.416 0.064a31.744 31.744 0 0 1 17.856 5.472l279.328 224v-715.36z m365.536 357.12l104.576 105.856a32 32 0 0 1-45.248 45.248l-104.352-105.568-104.352 105.568a32 32 0 0 1-45.248-45.248l104.576-105.856-103.616-104.832a32 32 0 0 1 45.28-45.248l103.328 104.544 103.328-104.544a32 32 0 0 1 45.248 45.248l-103.552 104.832z"  horiz-adv-x="1024" />

    
    <glyph glyph-name="volume-1" unicode="&#58971;" d="M654.784 830.112a32.064 32.064 0 0 1-32.928-1.696L300.768 576.32l-106.624-0.064c-54.528 0-98.88-38.656-98.88-86.4l1.728-211.136c0-47.552 44.352-86.24 98.848-86.24l106.592-0.064 319.392-252.736a32.064 32.064 0 0 1 49.92 26.528V801.888c0 11.808-6.528 22.688-16.96 28.256z m-47.072-803.744l-277.6 224.544a32.096 32.096 0 0 1-17.888 5.472l-116.384 0.064c-20.544 0-34.88 11.712-34.88 22.464l-1.696 211.136c0 10.496 14.336 22.176 34.912 22.176l116.384 0.064a31.808 31.808 0 0 1 17.856 5.472l279.328 224v-715.36z m182.112 521.984a32 32 0 0 1-10.528-63.136c50.336-8.384 85.472-52.32 85.472-106.752 0-51.84-36.384-96.672-86.496-106.688a32 32 0 1 1 12.544-62.752c79.968 15.904 138.016 87.168 138.016 169.44 0 85.024-58.432 156.448-138.912 169.888z"  horiz-adv-x="1024" />

    
    <glyph glyph-name="wallet" unicode="&#58972;" d="M1023.968 605.504c0.48 23.648-5.888 78.848-77.856 98.048L223.68 848.16c-52.96 0-96-43.04-96-96v-128.704l-32 0.064a96.096 96.096 0 0 1-95.648-95.968v-511.808c0-52.928 43.04-96 96-96h832.448c52.928 0 96 43.072 96 96L1023.904 605.44zM191.712 752.192a32 32 0 0 0 29.216 31.872l706.016-142.88c0.256-0.128-5.248-17.92-30.88-17.6H191.712V752.192z m768.864-736.384a32 32 0 0 0-32-32H96.096a32 32 0 0 0-32 32V527.648a32 32 0 0 0 32 32h800.064c31.424 0 64.384 10.72 64.384 31.872v-575.712zM192.16 335.52a64 64 0 1 1 0-128 64 64 0 0 1 0 128z"  horiz-adv-x="1024" />

    
    <glyph glyph-name="wrench" unicode="&#58973;" d="M1005.302379 679.621361a30.176013 30.176013 0 0 1-32.541506-4.858849l-161.14119-144.742573-145.477793 149.249795 144.039318 166.351667c7.831698 9.046411 9.749665 21.513196 4.85885 32.477574s-15.631431 17.677262-27.49086 17.677262h-8.662818c-89.025633 0-242.718718-7.639902-311.318002-77.262102l-13.841329-13.74543c-73.202405-74.672847-86.212615-197.167003-47.629512-290.284298L37.208559 137.987493a130.421753 130.421753 0 0 1 0-182.62242l45.040257-45.647614a126.202226 126.202226 0 0 1 180.129063 0l374.323218 377.328033c35.38649-19.147703 83.911054-31.614489 124.635886-31.614489 65.306775 0 127.225141 26.34008 174.343196 74.161389l13.649532 13.841328c74.513016 75.567898 73.394202 237.02875 73.713863 308.089425a30.78337 30.78337 0 0 1-17.741195 28.06625z m-100.597366-292.745689l-11.859429-13.873295c-35.706151-36.249575-82.408647-53.607176-131.508601-53.607176-24.294248 0-57.027551 4.571155-79.148103 13.777396a190.006593 190.006593 0 0 0-55.14155 35.38649L217.305656-44.602961c-12.01926-12.211056-28.002318-18.923941-45.008291-18.92394s-32.989032 6.712884-45.040258 18.92394l-45.008291 45.615648a65.338741 65.338741 0 0 0-0.031966 91.359159l400.343636 408.431063a192.084391 192.084391 0 0 0-28.034284 62.909316h-0.031966c-15.407668 62.333926-6.425189 148.450642 41.97151 197.838291l13.777396 13.905261c41.492018 42.099375 149.281761 54.56616 208.9625 58.242263l-117.251713-135.408467a31.039099 31.039099 0 0 1 1.214712-41.843646l185.33954-190.134457a29.952251 29.952251 0 0 1 41.523985-1.502408l130.485685 117.507443c-3.899866-63.29291-16.174855-155.227459-55.876771-195.472799z"  horiz-adv-x="1024" />

    
    <glyph glyph-name="action-redo" unicode="&#58974;" d="M33.95968-46.336l1.088 0.032c16.192 0.544 26.4 13.088 27.776 29.216 1.088 11.872 32.96 299.072 481.248 298.784l1.024-183.648a31.968 31.968 0 0 1 52.288-24.704l414.976 343.776c7.456 6.112 11.712 15.2 11.68 24.768s-4.352 18.688-11.776 24.768L597.31968 807.232a32.064 32.064 0 0 1-52.256-24.832L544.03968 602.752c-185.952-5.888-329.984-65.696-423.328-174.976C-31.22432 249.984 2.69568-8.384 4.26368-19.136c2.368-15.68 13.856-27.2 29.632-27.2z m543.136 392.544h-0.064c-320.224-0.192-442.592-108.32-512.48-203.84 10.24 76.48 40.064 168.736 104.992 244.032 86.336 100.096 225.44 152.864 407.552 152.864a32 32 0 0 1 32 32V715.04l332.448-273.344-332.448-275.904v148.384a31.936 31.936 0 0 1-32 32.032z"  horiz-adv-x="1024" />

    
    <glyph glyph-name="arrow-down" unicode="&#58975;" d="M0 384c0-282.784 229.216-512 512-512s512 229.216 512 512c0 282.752-229.216 512-512 512S0 666.784 0 384z m961.024 0c0-247.04-201.952-448-449.024-448S64 136.96 64 384 264.96 832 512 832s449.024-200.96 449.024-448zM479.648 608.32v-360.448l-115.744 115.744a32 32 0 0 1-45.248-45.248l194.016-189.024 194.016 189.024a31.904 31.904 0 0 1 0 45.248 32 32 0 0 1-45.248 0l-117.76-117.76V608.288a32 32 0 1 1-64.032 0z"  horiz-adv-x="1024" />

    
    <glyph glyph-name="arrow-left" unicode="&#58976;" d="M512 896C229.216 896 0 666.784 0 384s229.216-512 512-512 512 229.216 512 512S794.784 896 512 896z m0-961.024C264.96-65.024 64 136.96 64 384S264.96 832 512 832s448-200.96 448-448-200.96-449.024-448-449.024z m224.32 481.376H375.872l115.744 115.744a32 32 0 0 1-45.248 45.248L257.344 383.36l189.024-194.016a31.904 31.904 0 0 1 45.248 0 32 32 0 0 1 0 45.248l-117.76 117.76H736.32a32 32 0 0 1 0 64z"  horiz-adv-x="1024" />

    
    <glyph glyph-name="action-undo" unicode="&#58977;" d="M990.08032-46.336l-1.088 0.032c-16.192 0.544-26.4 13.088-27.776 29.216-1.088 11.872-33.952 299.072-482.24 298.784v-183.648a31.968 31.968 0 0 0-52.32-24.704L11.68032 417.12c-7.456 6.112-11.712 15.2-11.68 24.768s4.352 18.688 11.776 24.768L426.72032 807.232a32.128 32.128 0 0 0 33.92 4.096c11.136-5.312 18.304-16.576 18.304-28.928v-179.648c185.984-5.888 331.008-65.696 424.32-174.976 151.936-177.76 118.048-436.16 116.448-446.912-2.368-15.648-13.856-27.168-29.664-27.168zM446.97632 346.208h0.064c320.224-0.192 442.592-108.32 512.48-203.808-10.24 76.48-40.064 168.736-105.024 244.032-86.336 100.096-225.44 152.864-407.552 152.864a32 32 0 0 0-32 32V715.072L82.49632 441.696l332.448-275.904v148.384a31.936 31.936 0 0 0 32.032 32.032z"  horiz-adv-x="1024" />

    
    <glyph glyph-name="anchor" unicode="&#58978;" d="M1017.319854 165.62761l-81.96334 150.669779c-0.12747 0.191205-0.095603 0.382411-0.223073 0.573616l-5.831762 10.102013a22.275418 22.275418 0 0 1-31.48514 7.584477l-9.815205-6.309775c-0.191205-0.095603-0.286808-0.286808-0.478014-0.414278l-144.997354-97.897115a24.633617 24.633617 0 0 1-7.903153-32.791709l6.50098-7.170199c6.469113-11.121775 21.191921-11.599788 32.026889-4.620795l86.679737 58.923101c-20.522703-165.328852-154.079607-292.161703-317.655743-306.916379V576.304733h127.533937a31.86755 31.86755 0 0 1 0 63.735101h-128.904242c-0.25494 0.828556-0.446146 1.657113-0.764821 2.453802a128.394361 128.394361 0 0 1-29.190676 253.506364 128.426228 128.426228 0 0 1-30.146703-253.251424c-0.350543-0.860424-0.573616-1.784583-0.860424-2.708742h-128.840507a31.86755 31.86755 0 0 1 0-63.735101h127.438335v-638.912519c-163.480534 14.722808-296.941835 141.523792-317.496406 306.852643l86.584135-58.891233c10.834967-6.978994 25.557775-6.50098 32.026888 4.620795l6.532848 7.170199a24.633617 24.633617 0 0 1-7.903153 32.791709l-144.997354 97.897115c-0.191205 0.159338-0.318676 0.318676-0.478014 0.414278l-9.815205 6.309775a22.307285 22.307285 0 0 1-31.453272-7.584477l-5.831762-10.102013-0.191205-0.573616-81.931473-150.669779a24.633617 24.633617 0 0 1 7.903153-32.759842l9.082252-3.409828c10.834967-6.947126 24.155603-0.637351 30.624716 10.484425l47.705723 88.59179c29.254411-203.888588 204.270999-356.34295 411.569414-356.34295 207.202813 0 382.346871 152.454362 411.665018 356.21548l47.641988-88.496188c6.469113-11.121775 19.821616-17.463418 30.656583-10.484424l9.082252 3.409828a24.633617 24.633617 0 0 1 7.903153 32.759842zM446.189614 767.573772c0 35.691657 29.031338 64.722995 64.722995 64.722995s64.754863-29.031338 64.754862-64.722995-29.031338-64.722995-64.754862-64.722996a64.818598 64.818598 0 0 0-64.722995 64.722996z"  horiz-adv-x="1024" />

    
    <glyph glyph-name="arrow-right" unicode="&#58979;" d="M512 896C229.248 896 0 666.784 0 384s229.216-512 512-512 512 229.216 512 512S794.784 896 512 896z m0-961.024C264.96-65.024 64 136.96 64 384S264.96 832 512 832s448-200.96 448-448-200.96-449.024-448-449.024z m20.384 642.4a32 32 0 0 1 0-45.248l115.744-115.744H287.68a32 32 0 1 1 0-64h362.464l-117.76-117.76a32 32 0 0 1 45.248-45.248l189.024 194.016-189.024 194.016a32.064 32.064 0 0 1-45.28 0z"  horiz-adv-x="1024" />

    
    <glyph glyph-name="arrow-up" unicode="&#58980;" d="M1024 384c0 282.784-229.216 512-512 512S0 666.784 0 384s229.216-512 512-512 512 229.216 512 512zM63.008 384C63.008 631.04 264.96 832 512 832s448-200.96 448-448-200.96-448-448-448S63.008 136.96 63.008 384z m481.344-224.32V520.128l115.744-115.744a32 32 0 0 1 45.248 45.248l-194.016 189.024-194.016-189.024a31.904 31.904 0 0 1 0-45.248 32 32 0 0 1 45.248 0l117.728 117.76V159.68a32 32 0 0 1 64 0z"  horiz-adv-x="1024" />

    
    <glyph glyph-name="badge" unicode="&#58981;" d="M1021.966173 56.026249l-187.258148 346.293179c19.103403 43.358645 29.791069 91.261148 29.791069 141.691572 0 194.297928-157.499078 351.797006-351.797007 351.797006C318.37216 895.808006 160.873082 738.276929 160.873082 544.011c0-51.646386 11.231649-100.636855 31.167026-144.763476L3.949986 56.186244a31.999 31.999 0 0 1 35.230899-46.558545l160.602981 36.830849 54.974282-153.115215a31.999 31.999 0 0 1 58.302178-4.319865l163.674885 304.95047a350.933033 350.933033 0 0 1 68.893848-0.191994l167.226774-305.014468a31.999 31.999 0 0 1 58.174182 4.543858l54.974282 153.115215 160.63498-36.830849a31.67901 31.67901 0 0 1 32.63898 11.807631 31.999 31.999 0 0 1 2.687916 34.590919zM290.725024-17.347458l-40.254742 112.156495a31.871004 31.871004 0 0 1-37.278835 20.383363l-118.780288-27.263148 135.419768 246.968282a352.30899 352.30899 0 0 1 181.43433-127.804006l-120.508234-224.440986zM225.159073 544.011c0 158.555045 128.987969 287.543014 287.543014 287.543014s287.543014-128.987969 287.543015-287.543014-128.987969-287.575013-287.543015-287.575014c-158.555045 0-287.543014 129.019968-287.543014 287.543015z m587.501641-428.850599a31.839005 31.839005 0 0 1-37.278835-20.383363l-40.542733-112.95647-123.164151 224.536983a352.468985 352.468985 0 0 1 185.498203 130.715915l134.843786-249.304209-119.388269 27.359145z"  horiz-adv-x="1025" />

    
    <glyph glyph-name="bag" unicode="&#58982;" d="M864 737.28h-191.168V798.656c0 52.96-43.072 96-96 96h-127.648c-52.96 0-96-43.04-96-96V737.28H160a64 64 0 0 1-64-64v-735.968a64 64 0 0 1 64-64h704a64 64 0 0 1 64 64V673.28a64 64 0 0 1-64 64zM417.184 798.656a32 32 0 0 0 32 32h127.648a32 32 0 0 0 32-32V737.28h-191.648V798.656zM864-62.688H160V673.28h193.184v-65.856s-0.864-31.968 31.808-31.968c36 0 32.192 31.968 32.192 31.968V673.28h191.648v-65.856s-2.144-32.128 31.872-32.128c32 0 32.128 32.128 32.128 32.128V673.28H864v-735.968z"  horiz-adv-x="1024" />

    
    <glyph glyph-name="bar-chart" unicode="&#58983;" d="M272.064 576.032H48a32 32 0 0 1-32-32V-96a32 32 0 0 1 32-32h224.064a32 32 0 0 1 32 32V544a32 32 0 0 1-32 32zM240.064-64H80V512h160.064v-576z m383.68 449.76h-224.096a32 32 0 0 1-32-32V-96a32 32 0 0 1 32-32h224.096a32 32 0 0 1 32 32V353.76a32 32 0 0 1-32 32z m-32-449.76h-160.096V321.76h160.096V-64zM976 896h-223.744a32 32 0 0 1-32-32v-960a32 32 0 0 1 32-32H976a32 32 0 0 1 32 32V864a32 32 0 0 1-32 32z m-32-960h-159.744V832H944v-896z"  horiz-adv-x="1024" />

    
    <glyph glyph-name="basket-loaded" unicode="&#58984;" d="M1015.648 612a31.84 31.84 0 0 1-26.016 13.504h-99.744l-205.12 174.816a64 64 0 0 1-90.496 0l-201.664-174.816H310.496l-51.424 177.28C238.912 872.608 191.008 880.128 171.36 880.128H34.272a31.776 31.776 0 1 1 0-63.552h137.056c4.352 0 17.568 0 26.592-31.168l176.864-649.952c3.84-13.696 16.352-23.168 30.592-23.168h431.968a31.68 31.68 0 0 1 29.888 21.024l152.256 449.696a31.68 31.68 0 0 1-3.904 29.024zM639.52 755.072l152.032-129.6h-304.128l152.064 129.6z m175.52-579.264H429.568L328.416 561.92h616.096L815.04 175.808z m-63.04-127.936a80 80 0 1 1 0-160 80 80 0 0 1 0 160z m-288 0a80 80 0 1 1 0-160 80 80 0 0 1 0 160z"  horiz-adv-x="1024" />

    
    <glyph glyph-name="ban" unicode="&#58985;" d="M512 896C229.248 896 0 666.784 0 384s229.216-512 512-512 512 229.216 512 512S794.784 896 512 896zM64 384c0 112.256 41.6 214.976 110.112 293.664l631.84-631.84A445.184 445.184 0 0 0 512-64.992c-247.04 0-448 201.984-448 449.024z m787.04-292.768L219.424 722.848A446.048 446.048 0 0 0 512 832.032c247.04 0 448-200.96 448-448 0-111.648-41.152-214.048-108.96-292.768z"  horiz-adv-x="1024" />

    
    <glyph glyph-name="basket" unicode="&#58986;" d="M1015.648 612a31.84 31.84 0 0 1-26.016 13.504H310.496l-51.424 177.28C238.912 872.608 191.008 880.128 171.36 880.128H34.272a31.776 31.776 0 1 1 0-63.552h137.056c4.352 0 17.568 0 26.592-31.168l176.864-649.952c3.84-13.696 16.352-23.168 30.592-23.168h431.968a31.68 31.68 0 0 1 29.888 21.024l152.256 449.696a31.68 31.68 0 0 1-3.904 29.024zM815.04 175.808H429.568L328.416 561.92h616.096L815.04 175.808z m-63.04-127.936a80 80 0 1 1 0-160 80 80 0 0 1 0 160z m-288 0a80 80 0 1 1 0-160 80 80 0 0 1 0 160z"  horiz-adv-x="1024" />

    
    <glyph glyph-name="bell" unicode="&#58987;" d="M905.6 184.096c-37.344 45.408-88.48 109.76-88.48 175.36v208.96c0 180-134.624 326.496-306.688 326.496-172.096 0-305.664-146.464-305.664-326.496v-208.96c0-64.512-55.488-125.504-90.656-172.8-31.648-42.496-56.64-76.096-39.744-109.664 14.816-29.536 51.968-33.312 82.656-33.312h183.36a170.688 170.688 0 0 1 341.376 0h187.648c19.52 0 65.152 0 80.864 33.216 15.84 33.6-9.504 64.512-44.64 107.232zM511.008-59.84a103.68 103.68 0 0 0-103.712 103.552h207.424a103.712 103.712 0 0 0-103.712-103.552z m358.4 171.648H157.024c-4.896 0-8.992 0.16-12.352 0.384 6.592 10.208 16.256 23.264 24.16 33.856 38.976 52.384 104.16 126.368 104.16 213.408v208.96c0 142.464 103.04 258.336 237.536 258.336s238.56-115.904 238.56-258.336v-208.96c0-90.016 60.096-165.248 103.968-218.624 7.392-8.992 16.256-19.744 23.136-28.96a215.68 215.68 0 0 0-6.688-0.096z"  horiz-adv-x="1024" />

    
    <glyph glyph-name="book-open" unicode="&#58988;" d="M951.442096 893.922337L528.877481 779.459109c-10.739918-2.876764-34.073667-2.8448-44.781621 0.15982L72.399019 893.698589C35.672337 903.83119 0.064396 877.333 0.064396 839.487576v-777.237607c0-32.059933 24.292671-62.713447 55.233861-71.343739l411.696842-114.111624c11.027594-3.068548 25.187664-4.762642 39.891122-4.762642 10.068673 0 24.963916 0.767137 38.676489 4.538894l422.564615 114.463229c31.037083 8.374579 55.45761 38.996129 55.45761 71.183918V839.487576C1023.616899 877.301036 988.008958 903.863154 951.410132 893.922337zM479.876607-60.36409L71.408134 52.564865c-3.068548 0.831065-7.415657 6.4887-7.415658 9.685104V829.418904l403.002623-111.426645c3.899613-1.086777 8.278686-1.949806 12.849544-2.653016v-775.735297z m479.812211 122.614059c0-3.16444-5.178175-8.630291-8.246722-9.49332L543.804688-57.647147V717.384942c0.575353 0.15982 1.214634 0.223748 1.789986 0.383568L959.656854 829.770508v-767.520539z m-317.978274 467.346235c2.876764 0 5.785491 0.351604 8.662255 1.18267l223.684355 62.969159a31.96404 31.96404 0 1 1-17.292546 61.530778l-223.684355-62.937195a31.96404 31.96404 0 0 1 8.630291-62.713448z m0-191.784242c2.876764 0 5.785491 0.383568 8.662255 1.182669l223.684355 62.96916a31.96404 31.96404 0 1 1-17.292546 61.562742l-223.684355-62.96916a31.96404 31.96404 0 0 1 8.630291-62.745411z m0-191.784243c2.876764 0 5.785491 0.383568 8.662255 1.182669l223.684355 62.96916a31.96404 31.96404 0 0 1-17.292546 61.530778l-223.684355-62.96916a31.96404 31.96404 0 0 1 8.630291-62.745411zM394.596547 592.341616l-223.684355 62.969159c-16.908977 4.698714-34.64902-5.146211-39.443626-22.15108s5.114246-34.617056 22.119116-39.411662l223.684355-62.969159a31.96404 31.96404 0 0 1 17.260582 61.530778z m0-191.784243l-223.684355 62.96916c-16.908977 4.730678-34.64902-5.146211-39.443626-22.15108s5.114246-34.617056 22.119116-39.411662l223.684355-62.96916a31.96404 31.96404 0 0 1 17.260582 61.562742z m0-191.784243l-223.684355 62.96916a31.96404 31.96404 0 1 1-17.32451-61.530778l223.684355-62.96916a31.96404 31.96404 0 0 1 17.260582 61.562742z"  horiz-adv-x="1024" />

    
    <glyph glyph-name="briefcase" unicode="&#58989;" d="M960.064 704.512h-255.616V766.528c0 52.96-43.072 96-96 96h-192.448c-52.96 0-96-43.04-96-96v-62.016H64.032c-35.168 0-64-28.832-64-64v-224.256h-0.032v-64h0.032v-382.816c0-35.168 28.8-64 64-64h896c35.168 0 64 28.832 64 64V640.512c0 35.168-28.832 64-64 64zM384.032 766.528a32 32 0 0 0 32 32h192.416a32 32 0 0 0 32-32v-62.016h-256.448V766.528zM64.096 640.512h896v-224.256H607.712v32.768c0 35.264-28.736 64-64 64h-63.744c-35.264 0-64-28.736-64-64v-32.768H64.096V640.512z m479.68-352.64h-63.808v161.152h63.744l0.064-161.152z m-479.68-318.4V352.288h351.872v-64.384c0-35.264 28.736-64 64-64h63.744c35.264 0 64 28.736 64 64v64.384H960.064v-382.816H64.064z"  horiz-adv-x="1024" />

    
    <glyph glyph-name="bubbles" unicode="&#58990;" d="M425.216 216.64c230.944 0 409.92 131.904 407.136 327.648 0 173.184-183.232 311.648-414.176 311.648S0 717.472 0 544.288c0-107.872 52.896-222.88 163.392-279.36 0-0.64-0.192-1.152-0.192-1.856 0-46.88-39.04-111.168-54.4-137.664h0.064a23.584 23.584 0 0 1 21.728-32.992c1.952 0 5.088 0.384 6.208 0.384 0.32 0 0.416 0 0.416-0.096 81.664 13.344 202.272 105.248 220.128 127.04 18.336-2.72 30.72-3.168 46.08-3.168 6.528 0 13.472 0.096 21.696 0.096z m-94.112 68.896l-40.96-34.048c-9.504-10.976-50.816-45.44-86.368-67.808 21.632 61.664 20.704 81.216 20.704 81.216l3.008 39.168-34.88 17.792c-88.672 45.344-128.512 139.744-128.512 222.4 0 137.664 158.88 247.648 354.176 247.648s350.176-109.984 350.176-247.648c-0.608-152.608-145.888-264.64-341.152-264.64 0 0-29.792-1.152-60.384 3.36l-35.744 2.496z m693.664 0.256c0 86.72-33.888 152.864-118.432 202.528-2.048-23.072-8.64-47.84-15.808-69.568 54.656-37.792 70.24-76.576 70.24-132.96 0-69.024-32.16-119.072-106.912-157.344l-31.84-15.808s3.328-82.016 8.224-102.752c-62.432 45.76-83.904 84-83.904 84l-33.664-5.184c-13.312-1.952-49.312-1.952-49.312-1.952-86.944 0-151.36 20.736-206.336 63.744 14.912 0.928-89.184 0.864-91.52-1.152 63.552-77.632 167.456-126.592 297.856-126.592l18.72-0.064c13.28 0 24 0.384 39.84 2.688 15.488-18.784 102.24-101.504 172.832-113.024-0.032 0.064 0.064 0.064 0.384 0.064 0.928 0 3.68-0.352 5.344-0.352a20.416 20.416 0 0 1 18.816 28.512h0.064c-13.28 22.88-34.144 89.76-34.144 130.24 0 0.64-0.192 1.056-0.192 1.632 95.52 48.832 139.744 120.096 139.744 213.28z"  horiz-adv-x="1024" />

    
    <glyph glyph-name="bulb" unicode="&#58991;" d="M511.968 896C313.952 896 158.848 734.88 158.848 536.864c0-149.184 73.28-220.256 131.2-272.128 37.28-33.408 62.368-53.568 62.368-78.336v-54.24c0-1.408 0.192-2.752 0.352-4.128h-0.736v-92.64c0.032-97.696 63.2-163.36 161.088-163.36 94.464 0 158.944 65.664 158.944 163.36v92.64h-0.928c0.192 1.376 0.416 2.72 0.416 4.128v54.24c0 37.76 28.032 60.576 70.528 97.696 57.504 50.208 123.04 112.672 123.04 252.768C865.12 734.912 710.016 896 511.968 896z m-1.216-960c-59.904 0-94.688 37.152-94.688 99.36l-0.448 42.688c23.04-7.872 54.4-14.048 96.384-14.048 41.408 0 72.832 6.624 96.096 14.784v-43.392c0-63.168-35.264-99.36-97.312-99.36z m189.248 396.288c-43.456-37.952-92.448-77.216-92.448-145.888v-40.448c-15.168-8.48-43.168-18.56-96.128-18.56-55.552 0-81.92 9.856-95.04 17.472v41.536c0 54.592-42.688 89.312-83.68 126.016-54.304 48.672-109.888 103.84-109.888 224.448C222.816 699.584 349.216 832 511.904 832s289.152-132.416 289.152-295.136c0-111.04-48.448-158.592-101.12-204.576z"  horiz-adv-x="1024" />

    
    <glyph glyph-name="bubble" unicode="&#58992;" d="M512 768c247.04 0 448-143.552 448-320s-200.96-320-448-320l-26.528-0.096c-17.6 0-29.088 0.48-47.072 3.168l-35.84 5.12-23.008-27.84c-10.592-12.768-64.544-57.12-124.096-85.664 12.096 32.032 21.024 67.008 21.856 101.6l0.32 1.888v44.64l-34.88 17.792C129.152 246.72 64.032 341.248 64.032 448c0 176.448 200.96 320 448 320M512 832C229.184 832 0 660.064 0 448c0-132.064 78.272-247.168 213.6-316.352 0-0.832-0.256-1.408-0.256-2.336 0-57.376-32.16-120.48-51.008-152.928h0.064a28.928 28.928 0 0 1 26.656-40.416c2.4 0 6.272 0.48 7.648 0.48 0.352 0 0.512 0 0.512-0.096 100 16.352 209.952 104.672 231.84 131.328 22.496-3.36 37.664-3.84 56.48-3.84 7.936 0 16.48 0.096 26.528 0.096 282.752 0 512 171.904 512 384 0 212.064-229.248 384-512 384z"  horiz-adv-x="1024" />

    
    <glyph glyph-name="calendar" unicode="&#58993;" d="M960 800.096h-256.224V863.872a32 32 0 0 1-64 0v-63.744h-256V863.872a32 32 0 1 1-64 0v-63.744H64a64 64 0 0 1-64-64v-800a64 64 0 0 1 64-64h896a64 64 0 0 1 64 64v800a64 64 0 0 1-64 64z m0-863.968H64v800h255.776v-32.256a32 32 0 1 1 64 0V736.096h256v-32.256a32 32 0 1 1 64 0V736.096H960v-800z m-224 448h64a32 32 0 0 1 32 32v64a32 32 0 0 1-32 32h-64a32 32 0 0 1-32-32v-64a32 32 0 0 1 32-32z m0-256h64a32 32 0 0 1 32 32v64a32 32 0 0 1-32 32h-64a32 32 0 0 1-32-32v-64a32 32 0 0 1 32-32z m-192 128h-64a32 32 0 0 1-32-32v-64a32 32 0 0 1 32-32h64a32 32 0 0 1 32 32v64a32 32 0 0 1-32 32z m0 256h-64a32 32 0 0 1-32-32v-64a32 32 0 0 1 32-32h64a32 32 0 0 1 32 32v64a32 32 0 0 1-32 32z m-256 0H224a32 32 0 0 1-32-32v-64a32 32 0 0 1 32-32h64a32 32 0 0 1 32 32v64a32 32 0 0 1-32 32z m0-256H224a32 32 0 0 1-32-32v-64a32 32 0 0 1 32-32h64a32 32 0 0 1 32 32v64a32 32 0 0 1-32 32z"  horiz-adv-x="1024" />

    
    <glyph glyph-name="calculator" unicode="&#58994;" d="M959.820034 896H63.988002c-35.161407 0-63.988002-28.794601-63.988002-63.988002v-896.023996c0-35.161407 28.794601-63.988002 63.988002-63.988002h895.832032c35.161407 0 63.988002 28.826595 63.988002 63.988002V832.011998c0 35.161407-28.826595 63.988002-63.988002 63.988002z m0-960.011998H63.988002V832.011998h895.832032v-896.023996zM223.958008 543.68206h63.988002v-63.988003a31.994001 31.994001 0 0 1 63.988002 0v63.988003h63.988003a31.994001 31.994001 0 0 1 0 63.988002h-63.988003v63.988002a31.994001 31.994001 0 0 1-63.988002 0v-63.988002H223.958008a31.994001 31.994001 0 0 1 0-63.988002z m209.112791-238.835219a31.994001 31.994001 0 0 1-45.239517 0L319.940011 236.987565l-67.89127 67.859276a31.994001 31.994001 0 1 1-45.271512-45.271511l67.859277-67.859277-67.859277-67.859276a31.994001 31.994001 0 1 1 45.271512-45.271512L319.940011 146.412548l67.891271-67.859277a31.994001 31.994001 0 0 1 45.239517 45.271512l-67.859276 67.859276 67.859276 67.859277c12.47766 12.509654 12.47766 32.761857 0 45.271511zM607.886021 543.68206h191.964007a31.994001 31.994001 0 0 1 0 63.988002h-191.964007a31.994001 31.994001 0 0 1 0-63.988002z m0-319.940012h191.964007a31.994001 31.994001 0 0 1 0 63.988003h-191.964007a31.994001 31.994001 0 0 1 0-63.988003z m0-127.976004h191.964007a31.994001 31.994001 0 0 1 0 63.988002h-191.964007a31.994001 31.994001 0 0 1 0-63.988002z"  horiz-adv-x="1024" />

    
    <glyph glyph-name="call-end" unicode="&#58995;" d="M959.785373 695.783146a14.27463 14.27463 0 0 0-0.22354-2.618612 18115.686974 18115.686974 0 0 0-199.365805-131.888639c-2.874087-0.063869-10.18704 0.89416-20.59762 6.386859-11.113135 5.812042-43.462576 23.982656-88.681538 49.785566l-35.191593 20.086672-33.179733-23.280101c-24.68521-17.372257-78.302892-58.695235-159.958884-140.351228-82.00727-81.975336-123.202511-135.433346-140.478965-160.022753l-23.280101-33.179733 20.118606-35.191593c19.511854-34.137762 42.855824-75.364937 49.913303-88.745406 5.684305-10.761857 6.09945-18.106745 6.099451-20.118606l-0.031935-0.830292c-15.328462-24.429736-114.356711-173.594829-132.399588-199.908688-2.554744-0.44708-8.111311-0.031934-15.041053 4.822079-56.140491 40.524621-114.707988 98.038286-123.138642 120.551964 5.620436 119.785541 110.907807 287.855737 296.957011 473.904941S715.296409 826.458282 834.666805 832.014849c22.577547-8.079377 80.474424-66.678808 120.679701-122.276416 2.810218-4.119524 4.470801-9.197077 4.470802-13.955287m61.856729 0a88.777341 88.777341 0 0 1-15.935213 50.392318c-1.053832 1.500912-108.033721 151.783705-169.986253 149.803779C661.678728 890.45461 457.107633 721.266714 316.117719 580.372603S5.93991 234.875464 0.383343 60.099066v-1.437043c0-61.18611 148.366735-168.740816 149.835713-169.762713 40.333015-28.229917 84.689751-17.947074 102.732628 7.760033 10.985398 15.61587 124.703423 186.68789 137.509075 207.636788a61.63319 61.63319 0 0 1 8.334851 32.381375c0 15.61587-4.566604 32.956193-13.444339 49.849435a4959.396043 4959.396043 0 0 1-50.999069 90.725332c15.104922 21.491781 53.777353 71.979901 133.389551 151.528231 79.005446 79.069315 129.940647 118.061089 151.528231 133.261814 24.397802-13.891418 74.247236-42.249073 90.661464-50.871332 30.944332-16.318425 61.824795-18.170614 82.67789-4.949816 19.639592 12.422441 189.402305 125.72532 205.592992 137.413272 15.232659 11.049266 23.471707 30.784661 23.471707 52.212573z"  horiz-adv-x="1024" />

    
    <glyph glyph-name="camcorder" unicode="&#58996;" d="M638.144 672.608c1.28 0 2.336-1.024 2.336-2.24v-127.872a64.032 64.032 0 0 1 64.032-64c12.544 0 27.072 3.68 37.856 11.008l217.696 123.232v-456.416l-218.912 119.52a64 64 0 0 1-100.64-52.384l-0.16-125.856a2.24 2.24 0 0 0-2.304-2.24H66.336a2.24 2.24 0 0 0-2.272 2.24l0.16 572.768a2.24 2.24 0 0 0 2.272 2.24h571.68m352.192 32.064c-6.816 0-20.288-2.016-27.968-9.664l-257.984-152.48V670.4a66.24 66.24 0 0 1-66.304 66.24H66.432A66.24 66.24 0 0 1 0.16 670.4L0.032 97.664a66.24 66.24 0 0 1 66.272-66.24h571.712a66.24 66.24 0 0 1 66.304 66.24l0.16 125.76 262.976-153.312c7.712-7.68 16.256-6.688 23.072-6.688 7.072 0 12.384 2.144 13.024 2.432 12.448 5.184 20.448 17.184 20.448 30.688V671.52a33.024 33.024 0 0 1-33.632 33.184z"  horiz-adv-x="1024" />

    
    <glyph glyph-name="call-out" unicode="&#58997;" d="M1000.240839 124.667853c-15.629928 10.995287-186.855948 124.815682-207.823704 137.632862a61.688672 61.688672 0 0 1-32.410525 8.342354c-15.629928 0-32.98586-4.538752-49.89431-13.456441a5141.894684 5141.894684 0 0 1-90.807004-51.013016c-21.511128 15.118519-72.044698 53.793801-151.664638 133.509629-79.140494 79.076568-118.167369 130.057621-133.381778 151.664638 13.903924 24.419765 42.287106 74.314074 50.917128 90.743078 16.333115 30.972188 18.186971 61.912414 4.954271 82.752318-12.433624 19.657271-125.838499 191.586478-137.536973 207.759778-11.02725 15.246371-30.78041 23.524799-52.227612 23.524799a88.857259 88.857259 0 0 1-50.437681-15.949558C148.42575 879.123513-1.992329 770.033649-0.01062 708.025346c5.529606-174.230546 174.869807-378.985798 315.922714-520.070669s345.808159-310.457034 520.741892-316.018603h1.438337c61.24119 0 168.892718 148.500297 169.915535 149.970596 28.223367 40.33736 17.96323 84.765989-7.798982 102.793146z m-44.140962-65.588164c-40.529138-56.159066-98.126541-114.811249-120.628523-123.185567-119.893373 5.625496-288.14683 111.007647-474.331555 297.224335S69.604887 587.428785 64.043317 706.906639C72.129967 729.50451 130.78215 787.421544 186.429808 827.694978a25.250804 25.250804 0 0 0 13.935886 4.506789c1.05478 0 1.949746-0.095889 2.62097-0.223742a18131.994881 18131.994881 0 0 0 132.007366-199.545275c0.063926-2.876674-0.894965-10.196211-6.392608-20.616163-5.817274-11.123139-24.004245-43.501701-49.830384-88.76137l-20.104754-35.223273 23.301059-33.209601c17.387895-24.675469 58.748073-78.373381 140.477572-160.102881 82.049131-82.113057 135.555264-123.313419 160.166808-140.605425l33.209601-23.333021 35.223273 20.136717c34.168493 19.529419 75.432781 42.894403 88.825296 49.958235 10.771545 5.657459 18.123045 6.136904 20.136717 6.136905l0.831039-0.031963c24.451728-15.342261 173.7511-114.459656 200.088647-132.518776 0.447483-2.557043 0.031963-8.118613-4.826419-15.054593z m-271.941568 454.482505l274.946094 273.252052-0.863002-154.860942c-0.287667-12.945032 9.940506-24.16406 22.885538-23.84443l16.397041 0.031963c12.945032 0.31963 23.620689 7.990761 23.876393 20.90383l0.639261 230.741206c0 0.223741-0.863002 0.383557-0.863002 0.607297l1.278522 11.698474c0.127852 6.488498-1.374411 12.273808-5.593533 16.397041a21.926647 21.926647 0 0 1-16.365078 6.520461l-11.698473-0.287668c-0.223741 0-0.383557-0.095889-0.639261-0.127852l-229.20698 1.022817a24.611543 24.611543 0 0 1-23.876393-23.908355l-0.031963-16.397041a26.273621 26.273621 0 0 1 26.848956-23.84443l151.05734-0.41552-273.987202-272.325124a31.963043 31.963043 0 1 1 45.195742-45.227705z"  horiz-adv-x="1026" />

    
    <glyph glyph-name="call-in" unicode="&#58998;" d="M1000.240839 124.667853c-15.629928 10.995287-186.855948 124.815682-207.823704 137.632862a61.688672 61.688672 0 0 1-32.410525 8.342354c-15.629928 0-32.98586-4.538752-49.89431-13.456441a5141.894684 5141.894684 0 0 1-90.807004-51.013016c-21.511128 15.118519-72.044698 53.793801-151.664638 133.509629-79.140494 79.076568-118.167369 130.057621-133.381778 151.664638 13.903924 24.419765 42.287106 74.314074 50.917128 90.743078 16.333115 30.972188 18.186971 61.912414 4.954271 82.752318-12.433624 19.657271-125.838499 191.586478-137.536973 207.759778-11.02725 15.246371-30.78041 23.524799-52.227612 23.524799a88.857259 88.857259 0 0 1-50.437681-15.949558C148.42575 879.123513-1.992329 770.033649-0.01062 708.025346c5.529606-174.230546 174.869807-378.985798 315.922714-520.070669s345.808159-310.457034 520.741892-316.018603h1.438337c61.24119 0 168.892718 148.500297 169.915535 149.970596 28.223367 40.33736 17.96323 84.765989-7.798982 102.793146z m-44.140962-65.588164c-40.529138-56.159066-98.126541-114.811249-120.628523-123.185567-119.893373 5.625496-288.14683 111.007647-474.331555 297.224335S69.604887 587.428785 64.043317 706.906639C72.129967 729.50451 130.78215 787.421544 186.429808 827.694978a25.250804 25.250804 0 0 0 13.935886 4.506789c1.05478 0 1.949746-0.095889 2.62097-0.223742a18131.994881 18131.994881 0 0 0 132.007366-199.545275c0.063926-2.876674-0.894965-10.196211-6.392608-20.616163-5.817274-11.123139-24.004245-43.501701-49.830384-88.76137l-20.104754-35.223273 23.301059-33.209601c17.387895-24.675469 58.748073-78.373381 140.477572-160.102881 82.049131-82.113057 135.555264-123.313419 160.166808-140.605425l33.209601-23.333021 35.223273 20.136717c34.168493 19.529419 75.432781 42.894403 88.825296 49.958235 10.771545 5.657459 18.123045 6.136904 20.136717 6.136905l0.831039-0.031963c24.451728-15.342261 173.7511-114.459656 200.088647-132.518776 0.447483-2.557043 0.031963-8.118613-4.826419-15.054593z m-311.959297 460.235852a22.054499 22.054499 0 0 1 16.365078-6.52046l11.698473 0.255704c0.223741 0 0.383557 0.095889 0.639261 0.127852l229.238943-0.990854a24.675469 24.675469 0 0 1 23.876393 23.908356v16.397041a26.273621 26.273621 0 0 1-26.848956 23.84443l-151.345008 0.383556 261.649468 261.297874A31.963043 31.963043 0 1 1 964.21849 883.246746l-262.384618-262.001061 0.863002 154.6372c0.287667 12.913069-9.940506 24.16406-22.853576 23.876393l-16.39704-0.031963c-12.945032-0.31963-23.620689-8.022724-23.908356-20.935793l-0.639261-230.741205c0-0.223741 0.863002-0.383557 0.863002-0.607298l-1.278522-11.698474c-0.127852-6.488498 1.406374-12.241845 5.56157-16.429004z"  horiz-adv-x="1026" />

    
    <glyph glyph-name="check" unicode="&#58999;" d="M512 896C229.248 896 0 666.784 0 384s229.216-512 512-512 512 229.216 512 512S794.784 896 512 896z m0-961.024C264.96-65.024 64 136.96 64 384S264.96 832 512 832s448-200.96 448-448-200.96-449.024-448-449.024z m204.352 636.352l-300.384-302.272-135.264 135.264c-12.48 12.48-32.768 12.48-45.28 0s-12.512-32.736 0-45.248l158.4-158.4a32.064 32.064 0 0 1 49.056 4.64l318.784 320.768a32.032 32.032 0 0 1-45.28 45.28z"  horiz-adv-x="1024" />

    
    <glyph glyph-name="camera" unicode="&#59000;" d="M928 672h-147.168L704 800H320L243.2 672H96C64 672 0 640 0 576.992V64c0-53.024 48-96 89.344-96h840.672c42.016 0 94.016 44.992 94.016 94.976V576c0 32-32 96-96 96z m32-609.024c0-12.64-20.448-30.304-30.016-31.008H89.504c-7.424 0.608-25.504 15.04-25.504 32V576.96c0 20.256 27.232 30.496 32 31.008h183.424l76.8 128h313.664l57.12-96.96 17.6-31.04H928c22.56 0 31.68-29.472 32-32v-513.024zM512 576a224 224 0 1 1 0-448 224 224 0 0 1 0 448z m0-384c-88.224 0-160 71.776-160 160s71.776 160 160 160 160-71.776 160-160-71.776-160-160-160z"  horiz-adv-x="1024" />

    
    <glyph glyph-name="clock" unicode="&#59001;" d="M512 896C229.248 896 0 666.784 0 384s229.216-512 512-512 512 229.216 512 512S794.784 896 512 896z m0-961.024C264.96-65.024 64 136.96 64 384S264.96 832 512 832s448-200.96 448-448-200.96-449.024-448-449.024z m32 462.016V704a32 32 0 0 1-64 0v-320a31.68 31.68 0 0 1 9.856-23.008c0.544-0.64 0.96-1.312 1.536-1.888l158.368-158.4a32 32 0 0 1 45.248 45.28l-151.04 151.04z"  horiz-adv-x="1024" />

    
    <glyph glyph-name="chemistry" unicode="&#59002;" d="M807.294131-64.671663l-168.608326 199.5436V484.659012h21.087915a31.663535 31.663535 0 1 1 0 63.327071h-52.75145a31.663535 31.663535 0 0 1-31.663536-31.663535v-393.641072a31.663535 31.663535 0 0 1 8.169192-21.214569l128.997243-155.689603H311.506494l128.997243 155.689603a31.568545 31.568545 0 0 1 8.169192 21.214569V516.322548a31.663535 31.663535 0 0 1-31.663535 31.663535h-52.75145a31.663535 31.663535 0 1 1 0-63.327071H385.345859v-349.787075l-168.608326-199.5436a31.663535 31.663535 0 1 1 23.494343-52.878104h543.567912a31.695199 31.695199 0 0 1 23.494343 52.878104zM480.336465 579.522964A63.168753 63.168753 0 1 1 480.336465 705.86047a63.168753 63.168753 0 0 1 0-126.337506z m206.287932 94.009037c61.71223 0 111.740616 49.806741 111.740617 111.233999S748.368291 896 686.624397 896c-61.680567 0-111.740616-49.806741-111.740616-111.234s50.060049-111.234 111.740616-111.233999zM686.149444 832.831247c26.375725 0 47.843602-21.372886 47.843602-47.621957s-21.436213-47.621957-47.843602-47.621957-47.843602 21.372886-47.843601 47.621957 21.436213 47.621957 47.843601 47.621957z"  horiz-adv-x="1024" />

    
    <glyph glyph-name="cloud-download" unicode="&#59003;" d="M763.04 636C718.4 754.432 622.464 829.44 477.568 829.44c-184.384 0-313.376-136.928-324.48-315.552C64.16 485.44 0 394.752 0 292.032c0-125.76 98.848-231.968 215.84-231.968h28.448a32 32 0 0 1 0 64h-28.448c-82.304 0-152.832 76.928-152.832 167.968 0 80.48 56.416 153.056 127.168 165.216l29.024 4.992-2.592 29.344-0.256 0.352c0 155.872 102.624 273.44 261.184 273.44 127.104 0 198.496-62.624 231.552-169.44l6.816-22.016 23.072-0.48c118.88-2.496 223.072-98.944 223.072-218.784 0-109.056-72.288-230.592-181.696-230.592h-9.12a32 32 0 0 1 0-64v0.096c160 4.224 252.256 157.088 252.256 294.496-0.032 147.744-115.808 265.76-260.512 281.312z m-116.704-515.456a22.176 22.176 0 0 1-32.352 0l-70.4-77.664V365.024a32 32 0 0 1-64 0v-322.432l-68.096 75.936c-8.96 9.344-23.424 11.36-32.352 2.016l-8.064-4.416a24.64 24.64 0 0 1 0-33.824l115.52-127.744c0.16-0.16 0.192-0.384 0.352-0.544l8.096-8.48a22.304 22.304 0 0 1 32.512 0l8.096 8.48c0.16 0.16 0.256 0.352 0.384 0.544l118.432 129.76c8.928 9.344 8.928 20.448 0 29.824l-8.096 6.432z"  horiz-adv-x="1024" />

    
    <glyph glyph-name="compass" unicode="&#59004;" d="M733.184 615.744l-313.152-134.624a29.856 29.856 0 0 1-13.152-13.152l-143.456-289.216a30.144 30.144 0 0 1 39.968-40.8l305.728 126.976a29.856 29.856 0 0 1 13.216 12.48l150.88 296.896a30.144 30.144 0 0 1-4.64 35.552 30.176 30.176 0 0 1-35.36 5.888zM357.856 231.168l87.008 177.696 87.872-109.984-174.88-67.712z m226.848 105.216l-88.8 111.136 176.768 69.76-88-180.896zM512 896C229.248 896 0 666.784 0 384s229.216-512 512-512 512 229.216 512 512S794.784 896 512 896z m0-961.024C264.96-65.024 64 136.96 64 384S264.96 832 512 832s448-200.96 448-448-200.96-449.024-448-449.024z"  horiz-adv-x="1024" />

    
    <glyph glyph-name="cloud-upload" unicode="&#59005;" d="M763.04 636.032c-44.64 118.432-140.576 193.44-285.472 193.44-184.384 0-313.376-136.928-324.48-315.552C64.192 485.472 0 394.784 0 292.096c0-125.76 98.848-231.968 215.84-231.968h92.448a32 32 0 0 1 0 64H215.84c-82.304 0-152.832 76.928-152.832 167.968 0 80.448 56.416 153.056 127.168 165.216l29.024 4.992-2.56 29.312-0.256 0.352c0 155.872 102.56 273.44 261.152 273.44 127.104 0 198.528-62.624 231.52-169.44l6.848-22.016 23.072-0.48c118.88-2.496 223.104-98.944 223.104-218.752 0-109.056-72.288-230.592-181.696-230.592h-73.12a32 32 0 0 1 0-64l72.864 0.096c160 4.224 243.328 157.088 243.328 294.496 0 147.712-115.744 265.76-260.48 281.312z m-227.04-254.976c-0.192 0.192-0.256 0.352-0.352 0.512l-8.096 8.448a22.176 22.176 0 0 1-16.256 6.976 22.272 22.272 0 0 1-16.288-6.976l-8.096-8.448c-0.16-0.16-0.192-0.352-0.352-0.512l-115.52-127.744a24.672 24.672 0 0 1 0-33.856l8.064-5.472c8.96-9.344 23.424-6.336 32.352 3.04l68.096 75.936v-322.432a32 32 0 0 1 64 0V292.64l70.368-77.632c8.928-9.344 23.424-12.384 32.352-3.04l8.064 5.472a24.736 24.736 0 0 1 0 33.856l-118.4 129.76z"  horiz-adv-x="1024" />

    
    <glyph glyph-name="close" unicode="&#59006;" d="M512 896C229.248 896 0 666.784 0 384s229.216-512 512-512 512 229.216 512 512S794.784 896 512 896z m0-961.024C264.96-65.024 64 136.96 64 384S264.96 832 512 832s448-200.96 448-448-200.96-449.024-448-449.024z m181.024 630.016a32 32 0 0 1-45.248 0l-135.744-135.744-135.744 135.744a32 32 0 1 1-45.28-45.248L466.752 384l-135.744-135.744a32 32 0 0 1 45.28-45.248l135.744 135.744 135.744-135.744a32 32 0 0 1 45.248 45.248L557.28 384l135.744 135.744a31.968 31.968 0 0 1 0 45.248z"  horiz-adv-x="1024" />

    
    <glyph glyph-name="control-end" unicode="&#59007;" d="M943.936 896a32 32 0 0 1-32-32v-470.016a63.84 63.84 0 0 1-29.376 44.352L146.848 884.96A64.064 64.064 0 0 1 81.984 886.528a63.936 63.936 0 0 1-32.896-55.936l-1.024-893.216a63.936 63.936 0 0 1 97.76-54.336L882.56 329.632c15.936 9.856 26.496 26.144 29.376 44.352v-470.016a32 32 0 0 1 64 0v960a32 32 0 0 1-32 32zM112.064-62.592l0.992 893.216 735.744-446.592L112.064-62.592z"  horiz-adv-x="1024" />

    
    <glyph glyph-name="control-pause" unicode="&#59008;" d="M416.256 896H192.064a32 32 0 0 1-32-32v-960a32 32 0 0 1 32-32h224.192a32 32 0 0 1 32 32V864a32 32 0 0 1-32 32z m-32-960H224.064V832h160.192v-896z m447.68 960h-223.072a32 32 0 0 1-32-32v-960a32 32 0 0 1 32-32h223.072a32 32 0 0 1 32 32V864a32 32 0 0 1-32 32z m-32-960h-159.072V832h159.072v-896z"  horiz-adv-x="1024" />

    
    <glyph glyph-name="control-forward" unicode="&#59009;" d="M450.08 698.112L955.36 384l-505.28-314.112v246.976l-384-246.976V698.08l384-246.976V706.944m2.656 55.168c-10.72 0-22.72-2.656-32.448-8.064-20.288-11.296-34.208-32.704-34.208-55.936v-131.84L87.872 752.48a61.792 61.792 0 0 1-33.12 9.632c-10.688 0-15.744-2.656-25.44-8.064-20.288-11.296-27.232-32.704-27.232-55.936v-628.192c0-23.264 7.264-44.64 27.584-55.936 9.664-5.376 17.728-8.064 28.448-8.064 11.712 0 20.8 3.232 31.104 9.664l296.896 186.176v-131.84c0-23.264 13.92-44.64 34.208-55.936 9.696-5.376 21.056-8.064 31.776-8.064a64.96 64.96 0 0 1 34.112 9.664l505.472 314.112a64.032 64.032 0 0 1 0.16 108.672l-505.28 314.112a64.032 64.032 0 0 1-33.76 9.632z"  horiz-adv-x="1024" />

    
    <glyph glyph-name="control-play" unicode="&#59010;" d="M144.608 830.624l735.744-446.592L143.616-62.592l0.992 893.216m0 64a64 64 0 0 1-64-64l-0.992-893.216a63.936 63.936 0 0 1 97.76-54.336l736.736 446.624a63.904 63.904 0 0 1 0 108.672L178.4 884.992A64.064 64.064 0 0 1 144.608 894.624z"  horiz-adv-x="1024" />

    
    <glyph glyph-name="credit-card" unicode="&#59011;" d="M928.32 720H96.032a96 96 0 0 1-96-96v-480a96 96 0 0 1 96-96h832.288a96 96 0 0 1 96 96v480a96 96 0 0 1-96 96z m-832.32-64h832.288a32 32 0 0 0 32-32v-64H64v64c0 17.664 14.368 32 32 32z m832.32-544H96.032a32 32 0 0 0-32 32v288h896.288v-288a32 32 0 0 0-32-32z"  horiz-adv-x="1024" />

    
    <glyph glyph-name="control-start" unicode="&#59012;" d="M974.944 830.624A63.936 63.936 0 0 1 877.184 884.992L141.472 438.4a63.872 63.872 0 0 1-29.376-44.384V864.032a32 32 0 0 1-64 0v-960a32 32 0 0 1 64 0v470.08c2.88-18.208 13.44-34.496 29.376-44.384l736.736-446.624a63.872 63.872 0 0 1 64.832-1.6 63.936 63.936 0 0 1 32.928 55.936l-0.992 893.216zM175.2 384.032L910.944 830.624l1.024-893.216L175.232 384.032z"  horiz-adv-x="1024" />

    
    <glyph glyph-name="control-rewind" unicode="&#59013;" d="M573.92 698.112L68.64 384l505.28-314.112v246.976l384-246.976V698.08l-384-246.976V706.944m-2.656 55.168c10.688 0 22.72-2.656 32.416-8.064 20.32-11.296 34.24-32.704 34.24-55.936v-131.84l298.208 186.208c10.336 6.4 21.376 9.632 33.12 9.632 10.688 0 15.712-2.656 25.408-8.064 20.32-11.296 27.232-32.704 27.232-55.936v-628.192c0-23.264-7.264-44.64-27.552-55.936-9.664-5.376-17.728-8.064-28.448-8.064-11.712 0-20.768 3.232-31.104 9.664l-296.896 186.176v-131.84c0-23.264-13.92-44.64-34.24-55.936a66.4 66.4 0 0 0-31.744-8.064 64.96 64.96 0 0 0-34.112 9.664L32.32 329.696a63.968 63.968 0 0 0-0.096 108.672l505.28 314.112c10.304 6.4 22.048 9.632 33.76 9.632z"  horiz-adv-x="1024" />

    
    <glyph glyph-name="crop" unicode="&#59014;" d="M992 96h-128V689.888l119.456 119.296a32 32 0 1 1-45.28 45.28L819.584 736H224V864a32 32 0 1 1-64 0v-128H32a32 32 0 1 1 0-64h128v-608c0-2.944 0.928-5.6 1.696-8.288 0.32-1.216 0.256-2.464 0.704-3.616 3.232-8.064 9.6-14.432 17.664-17.664 1.376-0.544 2.88-0.48 4.288-0.832 2.528-0.64 4.928-1.568 7.648-1.568h608v-128a32 32 0 0 1 64 0v128h128a32 32 0 0 1 0 64zM755.488 672L224 141.216V672h531.488zM269.28 96L800 625.984V96H269.28z"  horiz-adv-x="1024" />

    
    <glyph glyph-name="cursor" unicode="&#59015;" d="M921.088 792.768L584.832 6.976l-119.328 344.512-344.192 104.032L921.056 792.768M1004.48 895.232c-6.112 0-13.504-1.728-22.112-5.376L27.712 484.768c-34.4-14.592-36.576-42.72-4.832-62.464l395.296-123.584 129.376-403.264c9.28-15.168 20.48-22.72 31.264-22.72 11.936 0 23.296 9.152 31.04 27.264L1018.112 853.728c11.072 25.888 4.768 41.472-13.632 41.472z"  horiz-adv-x="1024" />

    
    <glyph glyph-name="cup" unicode="&#59016;" d="M832.153928 480.194909c-8.348087 0-35.183508 0.159925-64.257879 0.351835l0.095955 63.938029a63.970014 63.970014 0 0 1-63.970014 63.970014L63.842074 608.614712a63.970014 63.970014 0 0 1-63.970014-63.970014v-480.734656a191.910042 191.910042 0 0 1 191.910042-191.910042h384.49177c105.998313 0 190.918507 85.911729 190.918507 191.910042l0.06397 32.816617c29.010401-0.223895 58.564548-0.38382 64.929564-0.38382 105.710448 0 191.462252 84.984164 191.462252 190.982477s-85.751804 192.837607-191.494237 192.837608z m-128.963548-416.284867c0-70.558926-56.357582-127.940028-126.948493-127.940028H191.750117c-70.558926 0-127.940028 57.381103-127.940028 127.940028l-0.095955 480.734656 640.275871-0.19191-0.83161-480.542746z m128.963548 95.475246c-6.333031 0-35.887178 0.19191-64.833609 0.38382l0.44779 256.679682c29.106356-0.223895 56.037732-0.351835 64.353834-0.351835 73.085741 0 128.579728-54.502452 128.579728-127.780104s-55.462002-128.963548-128.547743-128.963548zM575.602186 672.136936a31.985007 31.985007 0 0 1 31.985008 31.985007v159.925035a31.985007 31.985007 0 0 1-63.970015 0v-159.925035a31.985007 31.985007 0 0 1 31.985007-31.985007z m-383.820084 0a31.985007 31.985007 0 0 1 31.985007 31.985007v159.925035a31.985007 31.985007 0 0 1-63.970014 0v-159.925035a31.985007 31.985007 0 0 1 31.985007-31.985007z m191.910042 0a31.985007 31.985007 0 0 1 31.985007 31.985007v159.925035a31.985007 31.985007 0 0 1-63.970014 0v-159.925035a31.985007 31.985007 0 0 1 31.985007-31.985007z"  horiz-adv-x="1024" />

    
    <glyph glyph-name="direction" unicode="&#59017;" d="M966.88357 597.842635l-179.124805 191.988001a31.998 31.998 0 0 1-23.422536 10.143366h-267.119305L496.224986 865.985876c0 16.542966-14.335104 30.014124-31.998 30.014124s-30.014124-13.43916-30.014124-30.014124l-0.95994-66.011874H80.506968a31.998 31.998 0 0 1-31.998-31.998001v-383.976001a31.998 31.998 0 0 1 31.998-31.998h352.32998v-449.987876c0-16.542966 14.335104-30.014124 31.998-30.014124s31.998 13.43916 31.998 30.014124V352.002h267.535279c8.863446 0 17.342916 3.67977 23.422536 10.143366l179.124805 191.988001c11.455284 12.287232 11.455284 31.35804 0 43.67727zM750.449097 416.029998H112.536966V736.009999h637.912131l149.270671-159.99-149.270671-159.990001z"  horiz-adv-x="1024" />

    
    <glyph glyph-name="diamond" unicode="&#59018;" d="M1017.860725 600.37315L878.119732 867.546675C869.967375 883.116079 848.867156 895.87212 831.315611 895.87212H509.697128l-1.055011 0.12788c-0.28773 0-0.575461-0.09591-0.863191-0.12788H191.915049c-17.583515 0-38.715704-12.724071-46.995942-28.229535L5.561755 605.584265c-8.280237-15.537434-6.617796-39.898595 3.612613-54.221168l479.582391-668.525257c5.147175-7.161286 11.988761-10.805869 18.798377-10.80587 6.777646 0 13.555292 3.516703 18.766407 10.582079l487.447018 663.633844c10.390259 14.194692 12.244521 38.491914 4.092164 54.061317z m-76.280488 7.800687h-171.29541l68.57571 196.423853 102.68773-196.423853zM574.915985 831.932064h205.759101l-63.844146-182.740681-141.946925 182.740681z m92.808992-223.758227h-297.385202l140.540244 201.922697 156.812988-201.922697zM313.688886 638.705214L249.588979 831.932064h198.629785L313.720856 638.705214z m366.504402-94.471433l-171.870871-492.082673-163.302904 492.082673h335.173775z m-243.579644-478.974961L92.999782 544.265751h184.658882l158.95498-479.006931z m311.324133 478.974961h185.010553l-352.62941-480.125882 167.650827 480.125882zM188.398346 813.229597l68.032219-205.02379H79.34858L188.398346 813.229597z"  horiz-adv-x="1024" />

    
    <glyph glyph-name="cursor-move" unicode="&#59019;" d="M1016.384 399.36l-8.48 8.064c-0.16 0.16-0.352 0.224-0.544 0.352l-129.76 118.432a24.64 24.64 0 0 1-33.824 0l-5.504-8.064c-9.344-8.96-6.304-23.424 3.04-32.352l76.48-69.344H546.432V789.792l69.344-76.448c8.928-9.344 23.424-12.384 32.352-3.04l8.064 5.472a24.736 24.736 0 0 1 0 33.856L543.008 873.6a31.84 31.84 0 0 1-12.32 13.28L529.28 888.352a22.4 22.4 0 0 1-32.512 0l-8.096-8.448c-0.16-0.16-0.16-0.352-0.352-0.544l-115.52-127.744a24.704 24.704 0 0 1 0-33.824l8.064-5.472c8.928-9.344 23.424-6.304 32.352 3.04l69.152 77.088v-375.968H106.08l76.448 69.344c9.344 8.96 12.384 23.424 3.04 32.352l-5.472 8.064a24.672 24.672 0 0 1-33.856 0L22.272 413.056a31.744 31.744 0 0 1-13.28-12.288l-1.472-1.408a22.176 22.176 0 0 1-6.976-16.256 22.272 22.272 0 0 1 6.976-16.288l8.48-8.096c0.16-0.16 0.352-0.192 0.512-0.352l127.744-115.52a24.736 24.736 0 0 1 33.856 0l5.472 8.064c9.344 8.928 6.304 23.456-3.04 32.384l-77.12 69.152h379.008v-376.96l-69.152 77.12c-8.96 9.344-23.424 12.384-32.352 3.04l-8.064-5.472a24.704 24.704 0 0 1 0-33.824l115.52-127.744c0.16-0.192 0.192-0.384 0.352-0.544l8.096-8.48a22.4 22.4 0 0 1 32.512 0l8.096 8.48c0.16 0.16 0.224 0.352 0.384 0.544l118.432 129.76a24.704 24.704 0 0 1 0 33.824l-8.064 5.504c-8.928 9.344-23.424 6.304-32.352-3.04l-69.344-76.48V352.512h373.984l-77.12-69.152c-9.344-8.928-12.384-23.456-3.04-32.384l5.472-8.064a24.704 24.704 0 0 1 33.824 0l127.744 115.52c0.192 0.192 0.384 0.192 0.544 0.352l8.48 8.096a22.304 22.304 0 0 1 0 32.512z"  horiz-adv-x="1024" />

    
    <glyph glyph-name="directions" unicode="&#59020;" d="M1017.923258 709.922889l-99.693308 111.30713a31.930013 31.930013 0 0 1-23.931513 10.749985H544.124095V865.957633c0 16.540899-14.333313 30.010373-31.994001 30.010373s-31.994001-13.43748-31.994001-30.010373v-33.977629H224.376048a31.994001 31.994001 0 0 1-31.994001-31.994001v-223.606074a31.994001 31.994001 0 0 1 31.994001-31.994001h255.760045v-64.083985H131.625439a31.994001 31.994001 0 0 1-23.931513-10.749984L8.032612 356.261201a31.994001 31.994001 0 0 1 0-42.488033l99.661314-112.26695c6.110854-6.846716 14.781229-9.75817 23.931513-9.758171h348.510654v-289.641692c0-16.540899 14.333313-30.010373 31.994001-30.010373s31.994001 13.43748 31.994001 30.010373V191.748047h256.431919a31.994001 31.994001 0 0 1 31.994001 31.994001v224.565894a31.994001 31.994001 0 0 1-31.994001 31.994001h-256.399925v64.083985H894.330431a31.994001 31.994001 0 0 1 23.931513 10.749984l99.693308 112.298944a32.057989 32.057989 0 0 1 0 42.456039zM768.562013 255.736049H145.990745l-71.282634 79.249141 71.282634 81.296757h622.571268v-160.545898zM879.933131 608.341936H256.370049V767.960007h623.563082l71.25064-79.313128-71.25064-80.304943z"  horiz-adv-x="1026" />

    
    <glyph glyph-name="dislike" unicode="&#59021;" d="M416.406858 895.776007c290.806912 0 293.078841-12.063623 329.077717-39.166776 19.103403-14.367551 55.166276-24.31924 186.810162-32.894972 9.567701-0.607981 18.623418-4.287866 24.735227-11.679635 2.783913-3.423893 68.573857-99.356895 68.573857-253.016093 0-151.419268-47.070529-220.47311-49.118465-223.70501a31.999 31.999 0 0 0-27.135152-15.03953c-108.092622 0-257.975938-138.011687-358.740789-378.900159-17.407456-41.662698-21.023343-69.053842-85.021344-69.053842-36.382863 0-77.181588 26.047186-97.372957 59.51814-41.310709 68.317865-20.351364 215.065279-0.895972 293.462829-66.013937-0.543983-185.466204-1.439955-242.296428-1.439955-79.069529 0-131.387894 47.166526-133.019843 116.092372-0.511984 22.751289 2.463923 51.83838 9.055717 66.813913-17.375457 17.375457-39.870754 43.550639-40.830724 77.277585-1.215962 43.51864 27.295147 76.637605 45.470579 95.645011-4.15987 12.671604-12.511609 29.43908-11.711634 49.502453 2.015937 49.342458 40.094747 81.149464 63.838005 97.724946-1.951939 13.43958-3.487891 38.942783 0.831974 58.622168C115.776253 864.160995 231.036651 895.776007 416.34286 895.776007z m498.960408-137.019718c-114.684416 9.471704-175.9945 22.335302-208.345489 46.686541-25.023218 18.847411-21.151339 26.303178-290.614919 26.303178-82.173432 0-242.87241-3.423893-255.224024-59.806131-4.927846-22.559295 18.87941-44.766601 18.975407-44.926596a32.478985 32.478985 0 0 0-16.575482-41.790694c-0.255992-0.127996-64.125996-23.03928-65.59795-58.750164-0.95997-22.815287 14.71954-36.542858 15.071529-37.086841 9.311709-14.463548 5.887816-34.302928-8.223743-44.15862-0.159995-0.127996-41.566701-25.215212-40.542733-59.422143 0.799975-27.135152 36.574857-46.302553 37.662823-46.910534 7.99975-4.575857 13.823568-12.47961 15.647511-21.567326 1.823943-9.023718-0.223993-18.527421-5.823818-25.823193 0 0-16.255492-25.855192-15.67951-50.110435 1.183963-51.934377 57.022218-53.566326 69.021843-53.566326 80.701478 0 288.022999 0.831974 288.022999 0.831974 11.19965 0.031999 20.863348-5.247836 26.847161-14.207556s6.463798-20.063373 2.911909-30.239055c-31.231024-90.045186-48.702478-231.256773-19.711384-279.511265 8.543733-14.239555 10.495672-28.447111 42.494672-28.447111 4.447861 0 15.007531 3.51989 26.015188 29.75907 106.972657 255.800006 266.679666 403.795381 397.491578 417.138964 11.263648 25.727196 32.478985 79.03753 32.478985 175.802507-0.031999 98.716915-31.327021 175.098528-46.334552 199.833755z"  horiz-adv-x="1025" />

    
    <glyph glyph-name="doc" unicode="&#59022;" d="M560 896h-352a64 64 0 0 1-64-64v-896a64 64 0 0 1 64-64h608a64 64 0 0 1 64 64V576L560 896.032z m256-346.528V544h-288V832h5.504l282.496-282.528zM208-64V832h256v-352h352v-544h-608z"  horiz-adv-x="1024" />

    
    <glyph glyph-name="disc" unicode="&#59023;" d="M512 896C229.216 896 0 666.784 0 384s229.216-512 512-512 512 229.216 512 512S794.784 896 512 896z m448-512c0-66.304-14.592-129.28-40.544-185.952l-283.232 151.552c3.04 10.976 4.768 22.464 4.768 34.4a129.024 129.024 0 0 1-129.024 129.024c-14.624 0-28.64-2.528-41.696-7.04l-169.6 272.896A445.12 445.12 0 0 0 512 831.968c247.04 0 448-200.96 448-448z m-448 64.992c35.84 0 65.024-29.152 65.024-64.992S547.84 319.008 512 319.008s-64.992 29.184-64.992 64.992 29.152 64.992 64.992 64.992zM246.56 744.608l170.176-273.856-2.304-2.528-283.168 151.52a451.104 451.104 0 0 0 115.296 124.832zM64 384c0 63.68 13.44 124.256 37.504 179.168l284.352-152.16a129.024 129.024 0 0 1 161.856-150.88l170.208-273.792a444.96 444.96 0 0 0-205.888-50.304c-247.04 0-448 200.96-448 448z m708.448-364.16l-169.504 272.672 1.472 1.536 284.288-152.16a452.096 452.096 0 0 0-116.256-122.08z"  horiz-adv-x="1024" />

    
    <glyph glyph-name="docs" unicode="&#59024;" d="M768 896H416a64 64 0 0 1-64-64h352v-256h256v-512h-224v-64h224a64 64 0 0 1 64 64V640L768 896.032z m0-256V805.504L933.472 640H768zM64 768a64 64 0 0 1-64-64v-768a64 64 0 0 1 64-64h544a64 64 0 0 1 64 64V512l-256 256.032H64z m544-832H64V704h288v-256h256v-512z m-192 576V677.504L581.472 512H416z"  horiz-adv-x="1024" />

    
    <glyph glyph-name="drawer" unicode="&#59025;" d="M1023.0544 386.016L905.5504 793.12a32 32 0 0 1-30.848 23.488H139.3424c-14.496 0-27.168-9.728-30.944-23.776L1.0064 406.496a31.552 31.552 0 0 1 2.016-21.536 63.36 63.36 0 0 1-2.944-18.176v-351.328a64 64 0 0 1 64-64h896a64 64 0 0 1 64 64V366.784c0 1.696-0.384 3.328-0.48 5.024a31.808 31.808 0 0 1-0.544 14.272zM163.9824 752.576h686.368l93.12-321.856h-298.336c-1.44-76.832-55.904-129.664-133.056-129.664s-130.624 52.864-132.064 129.696H74.2224L163.9504 752.576zM960.0784 15.424H64.0784V366.752h263.136c27.936-80.448 95.776-129.664 184.864-129.664s157.952 49.248 185.888 129.696H960.0784v-351.328z"  horiz-adv-x="1024" />

    
    <glyph glyph-name="drop" unicode="&#59026;" d="M510.4-126.688c-193.312 0-350.592 155.136-350.592 345.792 0 222.688 311.648 644.832 324.896 662.72 6.016 8.064 15.424 12.864 25.472 12.928a30.368 30.368 0 0 0 25.664-12.576c13.408-17.536 328.352-432.224 328.352-663.072 0-190.688-158.72-345.792-353.792-345.792z m0.352 935.008c-74.4-105.664-286.944-422.048-286.944-589.216 0-155.36 128.576-281.792 286.592-281.792 159.776 0 289.76 126.4 289.76 281.792 0 173.376-214.144 485.024-289.408 589.216z"  horiz-adv-x="1024" />

    
    <glyph glyph-name="earphones" unicode="&#59027;" d="M1023.84 291.456c0.096 21.056-3.232 100.48-5.76 123.232C988.96 675.456 777.344 864.704 514.912 864.704 241.568 864.704 20.096 654.08 5.088 374.816c-0.32-6.112-2.56-49.344-2.72-75.072l-0.096-14.336a84.544 84.544 0 0 1-2.112-18.336v-278.656a85.12 85.12 0 0 1 84.992-85.024h86.272a85.12 85.12 0 0 1 85.024 85.024v278.624a85.12 85.12 0 0 1-85.024 85.024H85.12c-5.888 0-11.648-0.608-17.184-1.76l1.024 21.056C82.144 616.128 276.096 800.704 514.912 800.704c229.28 0 414.112-165.344 439.552-393.12 1.088-9.504 2.464-33.664 3.552-57.92a85.088 85.088 0 0 1-19.232 2.4h-85.28a85.12 85.12 0 0 1-85.024-85.024v-277.664a85.12 85.12 0 0 1 85.024-85.024h85.28a85.12 85.12 0 0 1 85.024 85.024v277.664c0 5.216-0.64 10.304-1.568 15.232a31.616 31.616 0 0 1 1.568 9.216zM85.12 288h86.272c11.584 0 21.024-9.408 21.024-21.024v-278.656a21.024 21.024 0 0 0-21.024-21.024H85.12a21.024 21.024 0 0 0-20.992 21.024v278.656A21.056 21.056 0 0 0 85.12 288z m874.72-298.656a21.024 21.024 0 0 0-21.024-21.024h-85.28a21.024 21.024 0 0 0-21.024 21.024v277.664c0 11.616 9.408 21.024 21.024 21.024h85.28c11.616 0 21.024-9.408 21.024-21.024v-277.664z"  horiz-adv-x="1024" />

    
    <glyph glyph-name="envelope" unicode="&#59028;" d="M1023.456 664a31.36 31.36 0 0 1-2.496 18.272C1012.896 717.696 987.296 736 944 736h-832C73.92 736 32.896 721.984 12.704 694.528a31.808 31.808 0 0 1-12.16-30.624A70.72 70.72 0 0 1 0 656v-512C0 90.976 58.976 32 112 32h832c53.024 0 80 58.976 80 112v512c0 2.816-0.384 5.312-0.544 8zM112 672h832.448L512 327.36 81.312 670.592C91.104 672.384 103.168 672 112 672z m832-576h-832c-17.632 0-48 30.336-48 48V602.432l427.04-341.664a31.872 31.872 0 0 1 41.92 0L960 602.4v-458.432c0-17.664 1.664-48-16-48z"  horiz-adv-x="1024" />

    
    <glyph glyph-name="energy" unicode="&#59029;" d="M595.36 831.296h0.192m-0.192 0l-72.192-379.36 261.568-0.864-356.064-514.304 72.224 417.376-261.568 0.928L595.392 831.328m0 63.968c-1.728 0-3.456-0.064-5.152-0.192-11.296-0.896-18.784-4.672-27.648-10.656a64.768 64.768 0 0 1-16.704-16.224L187.264 393.632c-14.144-19.424-16.256-45.024-5.376-66.432s32.832-34.976 56.928-35.168l184.736-1.344-58.08-342.208a63.936 63.936 0 0 1 37.76-70.528c8.224-3.52 16.864-5.216 25.376-5.216 20.128 0 36.64 9.408 49.056 26.4l359.04 514.304c14.144 19.424 16.224 45.056 5.376 66.432s-32.832 34.976-56.928 35.136l-184.736 0.32 57.472 300.864A64.064 64.064 0 0 1 597.664 895.2l-2.272 0.032z"  horiz-adv-x="1024" />

    
    <glyph glyph-name="envelope-open" unicode="&#59030;" d="M1023.328 422.72a63.84 63.84 0 0 1-12.096 30.464h0.16l-0.864 0.864a63.808 63.808 0 0 1-11.424 11.52L581.824 868.992c-36.224 36.224-99.52 36.288-135.776 0L28.832 468.736c-9.024-8.384-28.864-31.104-28.864-53.344v-479.52c0-35.168 28.8-64 64-64h896c35.168 0 64 28.832 64 64V414.112a31.2 31.2 0 0 1-0.64 8.608zM269.792 169.664l-205.856-189.568V351.264l205.856-181.6z m65.76-26.4a31.744 31.744 0 0 1 6.368 5.408c0.352 0.416 0.64 0.928 0.96 1.344l141.184 130.016c7.232 5.856 15.84 8.928 24.864 8.928a41.6 41.6 0 0 0 24.544-8l383.616-345.088H110.368l225.216 207.456z m421.92 22.176l202.496 179.712v-361.856l-202.496 182.144zM103.776 453.184l387.52 370.528a32 32 0 0 0 45.28 0L897.952 479.36h-0.96l54.88-55.808-242.304-215.04-135.264 121.664a105.248 105.248 0 0 1-131.68-1.376L317.12 213.216 75.328 426.56l27.008 26.592h1.472z"  horiz-adv-x="1024" />

    
    <glyph glyph-name="envelope-letter" unicode="&#59031;" d="M1023.144223 422.714624a63.824542 63.824542 0 0 1-12.093071 30.456624h0.159961l-0.863791 0.86379a63.79255 63.79255 0 0 1-11.421234 11.517211l-167.127524 168.343229V737.134475a31.992252 31.992252 0 0 1-31.992252 31.992252h-101.287469L581.747124 868.814584c-36.215229 36.215229-99.495903 36.279214-135.743125 0l-116.387812-99.687857H223.945779a31.992252 31.992252 0 0 1-31.992252-31.992252v-105.350485L28.857027 468.68749a63.952512 63.952512 0 0 1-28.857012-53.331084v-479.371902c0-35.159485 28.793027-63.984504 63.984504-63.984504h895.783053c35.159485 0 63.984504 28.825019 63.984504 63.984504V414.108708a31.192446 31.192446 0 0 1-0.639845 8.605916zM268.8629 170.551695l-204.878381-190.033977v370.7902l204.878381-180.788216z m61.681062-30.008733a31.448384 31.448384 0 0 1 15.580227 14.460498l137.854613 127.905023c7.230249 5.854582 15.836165 8.925838 24.85798 8.925838a41.589927 41.589927 0 0 0 24.538057-7.998063l383.747061-347.851754H109.989377l220.522593 204.558458z m427.672423 25.785755l201.551187 178.836688v-361.544438l-201.551187 182.675758z m139.582195 313.012193h-0.959768l54.866712-55.794488-119.874967-106.406229v228.136748l66.000015-65.968024zM491.209051 823.57754a31.992252 31.992252 0 0 0 45.269036 0l64.624349-54.450813h-174.389765l64.528372 54.450813z m276.60501-118.435317v-444.756285l-57.298124-50.867681-136.286993 123.522085a105.222516 105.222516 0 0 1-131.648116-1.375667l-126.593341-117.411564-60.049456 53.011161V705.142223h511.87603zM103.814873 453.171248l88.138654 88.106661v-217.547313l-116.579766 102.887083 27.001461 26.585561h1.471643z"  horiz-adv-x="1024" />

    
    <glyph glyph-name="emoticon-smile" unicode="&#59032;" d="M781.28 288.832a31.872 31.872 0 0 1-42.24-16.192c-0.64-1.408-66.144-144.192-229.44-146.112l-3.008-0.032c-153.664 0-219.936 140.384-222.688 146.4a32.032 32.032 0 0 1-58.272-26.464c3.392-7.552 85.376-183.936 280.864-183.936l3.872 0.032c203.872 2.4 283.84 176.672 287.136 184.064a31.904 31.904 0 0 1-16.16 42.24zM512 896C229.216 896 0 666.784 0 384s229.216-512 512-512 512 229.216 512 512S794.784 896 512 896z m0-960C264.96-64 64 136.96 64 384S264.96 832 512 832s448-200.96 448-448-200.96-448-448-448z m-160.48 480.16a63.84 63.84 0 1 1 0 127.68 63.84 63.84 0 0 1 0-127.68z m320 0a63.84 63.84 0 1 1 0 127.68 63.84 63.84 0 0 1 0-127.68z"  horiz-adv-x="1024" />

    
    <glyph glyph-name="earphones-alt" unicode="&#59033;" d="M1022.466061 323.489311c0.095871 21.027744-3.227663 100.345161-5.75227 123.066629-29.080923 260.418063-240.412945 449.412102-502.492775 449.412103C241.243829 895.968043 20.069032 685.626689 5.081172 406.737447c-0.319571-6.103798-2.556565-49.277783-2.71635-74.971258l-0.095871-14.316762a84.430546 84.430546 0 0 1-2.109166-18.311394v-214.367943a85.005773 85.005773 0 0 1 84.877946-84.909902h86.156227a85.005773 85.005773 0 0 1 84.909902 84.909902v214.335986a85.005773 85.005773 0 0 1-84.909902 84.877945H85.005773a86.603626 86.603626 0 0 1-17.160939-1.725681l1.022625 21.027744C82.033767 647.725619 275.725494 832.053928 514.189058 832.053928c228.972318 0 413.556284-165.122117 438.962145-392.592454 1.08654-9.491246 2.428736-33.618825 3.547233-57.842275a84.462504 84.462504 0 0 1-19.174234 2.39678h-85.165559a85.005773 85.005773 0 0 1-84.909902-84.909903v-213.377274c0-32.340542 18.375308-60.17514 45.027494-74.491902l-205.16431-80.531785v5.209a31.957058 31.957058 0 0 1-31.957058 31.957058h-95.871173a31.957058 31.957058 0 0 1-31.957058-31.957058v-31.957057a31.957058 31.957058 0 0 1 31.957058-31.957058h95.871173l0.766969 0.063914 57.299005 0.2237 329.125737 129.202384a31.733358 31.733358 0 0 1 10.961271 7.637737 84.750117 84.750117 0 0 1 48.926255 76.56911v213.377274c0 5.209-0.639141 10.290173-1.565896 15.21156 0.862841 2.940049 1.501982 6.007927 1.501982 9.203632zM85.037731 320.037949h86.156227c11.568455 0 20.995787-9.395375 20.995787-20.995787v-214.367943a20.995787 20.995787 0 0 0-20.995787-20.995787H85.037731a20.995787 20.995787 0 0 0-20.96383 20.995787v214.367943A21.027744 21.027744 0 0 0 85.037731 320.037949z m746.389039-20.96383c0 11.600412 9.395375 20.995787 20.995787 20.995787h85.165559c11.600412 0 20.995787-9.395375 20.995787-20.995787v-213.377274a20.995787 20.995787 0 0 0-20.995787-20.995787h-85.165559a20.995787 20.995787 0 0 0-20.995787 20.995787v213.377274z"  horiz-adv-x="1024" />

    
    <glyph glyph-name="eye" unicode="&#59034;" d="M516.192 574.592a192 192 0 1 1 0.064-384.064 192 192 0 0 1-0.064 384.064z m0-320c-70.592 0-129.472 58.816-129.472 129.376s57.408 128 128 128 128-57.408 128-128-55.936-129.408-126.528-129.408z m508.224 136.832c-0.384 1.6-0.192 3.328-0.672 4.896-0.192 0.672-0.64 1.056-0.864 1.664-0.352 0.896-0.256 1.984-0.736 2.848-93.088 213.12-293.664 335.744-507.424 335.744S96.352 614.144 3.232 401.024c-0.384-0.896-0.32-1.824-0.672-2.848-0.224-0.64-0.672-0.96-0.896-1.568-0.48-1.6-0.288-3.296-0.608-4.928-0.576-2.88-1.12-5.696-1.12-8.608s0.544-5.664 1.12-8.576c0.32-1.6 0.096-3.36 0.608-4.864 0.224-0.736 0.672-1.024 0.896-1.664 0.32-0.864 0.256-1.952 0.672-2.848C96.352 152.064 298.976 31.424 512.736 31.424s416.352 120.384 509.44 333.504c0.48 0.928 0.384 1.856 0.736 2.88 0.224 0.544 0.64 0.96 0.832 1.6 0.48 1.568 0.352 3.264 0.672 4.928 0.544 2.88 1.088 5.664 1.088 8.64 0 2.816-0.544 5.6-1.12 8.48zM512.736 95.424c-181.28 0-359.744 95.552-447.424 287.68 86.848 191.456 267.68 289.504 449.408 289.504 181.696 0 358.496-98.144 445.376-289.696-86.816-191.424-265.632-287.456-447.36-287.456z"  horiz-adv-x="1025" />

    
    <glyph glyph-name="equalizer" unicode="&#59035;" d="M160.384 508.128V864a32 32 0 0 1-64 0v-355.84C41.056 493.888-0.032 443.712-0.032 384s41.088-109.888 96.416-124.192V-96a32 32 0 0 1 64 0V259.84c55.296 14.304 96.288 64.448 96.288 124.16s-41.024 109.856-96.32 124.128z m-31.648-188.16L128.384 320a64.096 64.096 0 0 0-64.096 64c0 35.232 28.576 63.84 63.712 64.032l0.384-0.032 0.352 0.032c35.136-0.224 63.648-28.864 63.648-64.032s-28.512-63.808-63.648-64.032z m415.648-3.84V864a32 32 0 0 1-64 0v-547.84c-55.328-14.272-96.384-64.448-96.384-124.16s41.088-109.888 96.384-124.192V-96a32 32 0 0 1 64 0v163.84A128.48 128.48 0 0 1 640.672 192a128.512 128.512 0 0 1-96.288 124.128z m-31.648-188.16L512.352 128l-0.416-0.064c-35.136 0.192-63.68 28.832-63.68 64.064s28.608 63.872 63.808 64.032l0.352-0.032 0.288 0.032c35.168-0.192 63.744-28.832 63.744-64.032s-28.544-63.808-63.68-64.032z m415.648 572.16V864a32 32 0 0 1-64 0v-163.84c-55.328-14.272-96.384-64.416-96.384-124.16s41.088-109.92 96.384-124.16V-96a32 32 0 0 1 64 0V451.84A128.48 128.48 0 0 1 1024.672 576a128.544 128.544 0 0 1-96.288 124.128z m-31.648-188.16L896.384 512l-0.416-0.032c-35.168 0.192-63.712 28.832-63.712 64.032s28.544 63.84 63.712 64.032l0.416-0.032 0.352 0.032A64.128 64.128 0 0 0 960.384 576a64.064 64.064 0 0 0-63.648-64.032z"  horiz-adv-x="1024" />

    
    <glyph glyph-name="eyeglasses" unicode="&#59036;" d="M1026.8272 244.192c-0.992 13.856-53.024 319.328-61.152 368.224-0.768 4.672-1.408 9.696-2.112 14.944-6.304 49.152-18.048 140.608-165.472 140.608a32 32 0 1 1 0-64c91.136 0 95.936-37.408 102.016-84.8 0.768-6.08 1.536-11.872 2.432-17.28 3.744-22.528 20.704-112.16 35.36-201.024a222.016 222.016 0 0 1-135.136 45.792 228.288 228.288 0 0 1-194.272-109.376c-19.232 7.264-51.808 16.352-95.392 16.352-42.944 0-74.528-9.12-94.016-17.088a223.008 223.008 0 0 1-192.256 110.112 227.68 227.68 0 0 1-141.856-49.824c14.816 89.984 32.416 182.048 36.192 205.024 0.928 5.408 1.664 11.232 2.432 17.28 6.08 47.392 10.88 84.768 102.016 84.768a32 32 0 1 1 0 64c-147.424 0-159.168-91.456-165.472-140.64-0.704-5.248-1.312-10.24-2.112-14.944-8.16-48.896-57.024-352.352-57.984-366.208a30.688 30.688 0 0 1 0.768-8.928c-0.32-4.64-0.704-9.216-0.704-13.888 0-123.328 103.328-223.328 226.688-223.328s223.328 100 223.328 223.36a222.4 222.4 0 0 1-6.848 53.984c13.12 5.28 36.832 12.352 69.792 12.352 32.192 0 56.48-6.432 70.304-11.328a216.768 216.768 0 0 1-7.328-54.976c0-123.328 103.36-223.328 226.688-223.328s223.328 100 223.328 223.36c0 3.36-0.352 6.592-0.512 9.92a31.136 31.136 0 0 1 1.216 10.944zM226.7952 64c-88.192 0-162.688 72.96-162.688 159.328s74.496 159.36 162.688 159.36c87.872 0 159.328-71.456 159.328-159.36s-71.456-159.36-159.328-159.36z m575.968 0c-88.192 0-162.688 72.96-162.688 159.328s74.496 159.36 162.688 159.36a159.52 159.52 0 0 0 155.456-124.768c0.64-6.528 1.216-12.672 1.6-18.304a26.752 26.752 0 0 1 1.856-7.648c0.16-2.88 0.448-5.696 0.448-8.64A159.52 159.52 0 0 0 802.7952 64z"  horiz-adv-x="1026" />

    
    <glyph glyph-name="feed" unicode="&#59037;" d="M101.856 565.76a32.736 32.736 0 1 1 0-65.536c303.008 0 525.344-224.384 525.344-527.36a32.736 32.736 0 1 1 65.536 0c0 340.352-250.528 592.896-590.88 592.896zM102.144 893.376a32.736 32.736 0 1 1 0-65.536c470.176 0 852.672-382.496 852.672-852.64a32.736 32.736 0 1 1 65.536 0C1020.352 481.504 608.448 893.408 102.144 893.408zM184 236.384c-99.456 0-180.352-81.12-180.352-180.864 0-99.712 80.928-180.928 180.352-180.928s180.416 81.184 180.416 180.928-80.928 180.864-180.416 180.864z m0-298.432c-64.608 0-117.184 52.736-117.184 117.568s52.576 117.536 117.184 117.536 117.216-52.736 117.216-117.536-52.576-117.568-117.216-117.568z"  horiz-adv-x="1024" />

    
    <glyph glyph-name="film" unicode="&#59038;" d="M800 623.712h64a32 32 0 0 1 32 32v32a32 32 0 0 1-32 32h-64a32 32 0 0 1-32-32v-32a32 32 0 0 1 32-32z m0-192h64a32 32 0 0 1 32 32v32a32 32 0 0 1-32 32h-64a32 32 0 0 1-32-32v-32a32 32 0 0 1 32-32z m0-192h64a32 32 0 0 1 32 32v32a32 32 0 0 1-32 32h-64a32 32 0 0 1-32-32v-32a32 32 0 0 1 32-32z m0-192h64a32 32 0 0 1 32 32v32a32 32 0 0 1-32 32h-64a32 32 0 0 1-32-32v-32a32 32 0 0 1 32-32z m-640 576h64a32 32 0 0 1 32 32v32a32 32 0 0 1-32 32H160a32 32 0 0 1-32-32v-32a32 32 0 0 1 32-32z m0-192h64a32 32 0 0 1 32 32v32a32 32 0 0 1-32 32H160a32 32 0 0 1-32-32v-32a32 32 0 0 1 32-32z m0-192h64a32 32 0 0 1 32 32v32a32 32 0 0 1-32 32H160a32 32 0 0 1-32-32v-32a32 32 0 0 1 32-32z m0-192h64a32 32 0 0 1 32 32v32a32 32 0 0 1-32 32H160a32 32 0 0 1-32-32v-32a32 32 0 0 1 32-32zM960 880.096H64c-35.168 0-64-28.8-64-64v-864.192c0-35.168 28.8-64 64-64h896c35.168 0 64 28.832 64 64V816.096c0 35.168-28.832 64-64 64z m0-928.192H64V816.096h896v-864.192z"  horiz-adv-x="1024" />

    
    </font>
</defs>
</svg>
